<?xml version="1.0" encoding="UTF-8" standalone="no"?>
<!-- Created with Inkscape (http://www.inkscape.org/) -->

<svg
   xmlns:dc="http://purl.org/dc/elements/1.1/"
   xmlns:cc="http://creativecommons.org/ns#"
   xmlns:rdf="http://www.w3.org/1999/02/22-rdf-syntax-ns#"
   xmlns:svg="http://www.w3.org/2000/svg"
   xmlns="http://www.w3.org/2000/svg"
   xmlns:sodipodi="http://sodipodi.sourceforge.net/DTD/sodipodi-0.dtd"
   xmlns:inkscape="http://www.inkscape.org/namespaces/inkscape"
   width="210mm"
   height="213mm"
   viewBox="0 0 744.09449 754.72441"
   id="svg17351"
   version="1.1"
   inkscape:version="0.91 r13725"
   sodipodi:docname="Basilisk.svg">
  <defs
     id="defs17353" />
  <sodipodi:namedview
     id="base"
     pagecolor="#ffffff"
     bordercolor="#666666"
     borderopacity="1.0"
     inkscape:pageopacity="0.0"
     inkscape:pageshadow="2"
     inkscape:zoom="0.35"
     inkscape:cx="1194.8569"
     inkscape:cy="1073.3153"
     inkscape:document-units="px"
     inkscape:current-layer="layer1"
     showgrid="false"
     inkscape:window-width="1916"
     inkscape:window-height="1035"
     inkscape:window-x="4"
     inkscape:window-y="1"
     inkscape:window-maximized="1"
     fit-margin-top="0"
     fit-margin-left="0"
     fit-margin-right="0"
     fit-margin-bottom="0" />
  <metadata
     id="metadata17356">
    <rdf:RDF>
      <cc:Work
         rdf:about="">
        <dc:format>image/svg+xml</dc:format>
        <dc:type
           rdf:resource="http://purl.org/dc/dcmitype/StillImage" />
        <dc:title></dc:title>
      </cc:Work>
    </rdf:RDF>
  </metadata>
  <g
     inkscape:label="Layer 1"
     inkscape:groupmode="layer"
     id="layer1"
     transform="translate(1284.1426,-850.95309)">
    <path
       style="fill:#000000"
       d="m -886.02661,1592.5062 c -9.2768,-7.1248 -9.40332,-12.7195 -0.37845,-16.7343 7.86682,-3.4998 9.15112,-10.7944 2.80537,-15.9366 -6.68042,-5.4134 -5.12288,-9.9376 9.80926,-28.4898 l 14.01759,-17.4158 17.54282,-1.3578 c 14.89652,-1.1532 18.18806,-0.5725 21.81765,3.8493 3.69467,4.5007 4.97813,4.7048 9.46111,1.5038 7.22607,-5.1589 3.7,-14.5766 -6.10393,-16.3036 -4.19739,-0.7393 -22.78072,-0.9289 -41.29617,-0.4208 l -33.66444,0.9237 -18.2349,18.8773 c -11.02735,11.4157 -23.01498,20.8501 -30.3283,23.8684 -9.90464,4.0876 -17.36552,10.7355 -17.36243,15.4701 2.8e-4,0.4755 4.10313,0.8031 9.11745,0.7278 7.32089,-0.1095 12.70917,-3.5606 27.3518,-17.5168 20.53418,-19.5715 47.10384,-39.9852 49.27913,-37.8613 1.88465,1.8402 -9.94307,23.4507 -19.60309,35.8165 -6.87399,8.7995 -7.32201,10.7295 -4.66897,20.1119 1.8824,6.6564 1.96572,11.3247 0.23284,13.0173 -4.21086,4.1117 -6.29946,0.1725 -7.756,-14.6279 -1.16479,-11.8356 -0.35208,-14.7936 6.13197,-22.3175 4.11099,-4.7702 6.73429,-9.396 5.82956,-10.2794 -0.90473,-0.8834 -10.74036,7.6942 -21.85692,19.0614 -11.11656,11.3672 -23.68349,22.0794 -27.92661,23.8046 -6.0697,2.4679 -7.71477,4.9504 -7.71477,11.6413 0,12.3807 -6.02341,8.8201 -12.09648,-7.1508 -3.95585,-10.4019 -4.41116,-14.8182 -2.05072,-19.8769 2.35398,-5.0438 2.2356,-6.2438 -0.52629,-5.3457 -1.95899,0.6366 -3.948,3.5209 -4.42014,6.4091 -1.44673,8.8469 -6.69726,20.3165 -9.30036,20.3165 -4.03497,0 -2.80481,-16.7532 2.16266,-29.4532 3.92162,-10.0261 4.06329,-12.8617 0.92857,-18.5807 -3.27414,-5.9736 -5.55603,-6.749 -19.8615,-6.749 -15.5282,0 -16.5668,0.4569 -26.4658,11.6414 -8.3878,9.4768 -10.4708,14.1879 -11.2024,25.337 -0.5807,8.8494 0.5936,15.9608 3.3185,20.0966 2.3194,3.5203 3.5967,7.0064 2.8384,7.7468 -2.0872,2.038 -13.9522,-4.8696 -25.4088,-14.7922 l -10.232,-8.8622 3.2514,-13.0509 c 1.7884,-7.1782 5.17,-15.2157 7.5148,-17.8614 6.1331,-6.9207 3.4769,-7.794 -12.2023,-4.0115 -13.5364,3.2656 -13.9567,3.6784 -18.0503,17.7349 -2.3052,7.915 -5.4688,14.0151 -7.03,13.5552 -1.5611,-0.4597 -5.6963,-6.3195 -9.1889,-13.0217 -4.7187,-9.0539 -5.9943,-15.1778 -4.9633,-23.8272 1.5298,-12.8346 -0.6671,-14.1551 -12.5319,-7.5327 -15.0814,8.4177 -18.7429,2.9142 -6.3121,-9.4875 4.2432,-4.2331 9.1077,-9.9933 10.8103,-12.8003 2.0709,-3.4141 8.1072,-5.8193 18.2349,-7.2653 36.8622,-5.2641 40.0853,-5.2291 53.9458,0.5839 7.457,3.1276 14.0521,5.6865 14.6561,5.6865 2.7459,0 9.4572,-16.4981 8.1081,-19.9311 -0.8307,-2.1138 0.4407,-5.4246 2.8253,-7.3568 2.7136,-2.199 4.2529,-7.743 4.1143,-14.8193 -0.1234,-6.2184 -0.5997,-10.0735 -1.0621,-8.567 -0.4626,1.5066 -2.4841,8.0534 -4.4925,14.5485 -3.5743,11.5594 -9.2224,16.9517 -17.7546,16.9517 -3.707,0 -3.6467,-1.0469 0.464,-8.0405 5.9398,-10.1052 3.0256,-13.3002 -6.5458,-7.1768 -4.0391,2.5841 -7.8884,4.1673 -8.5533,3.5179 -0.6651,-0.6492 1.3104,-6.6027 4.3899,-13.2298 8.604,-18.5164 7.788,-20.7206 -9.66,-26.0906 -33.0866,-10.1834 -87.0944,-66.1301 -102.3074,-105.98 -2.1907,-5.7388 -4.2675,-7.3069 -8.1025,-6.1187 -9.0425,2.8024 -24.0518,-5.4657 -29.2527,-16.1144 -9.5887,-19.6331 -9.2782,-29.4236 1.6288,-51.3677 5.4758,-11.0171 11.4493,-27.3743 13.2742,-36.3494 l 3.3179,-16.3183 -15.0477,-13.2478 c -24.0059,-21.1341 -34.3619,-27.2031 -44.7249,-26.2109 -10.7962,1.0337 -13.1207,5.2645 -6.4633,11.7648 4.0364,3.9409 4.1662,5.0598 0.8267,7.1239 -7.4558,4.6082 -17.0173,2.5326 -25.2177,-5.4743 -6.4139,-6.2625 -8.2004,-10.4691 -8.2004,-19.31 0,-20.8026 12.9894,-36.0196 35.4632,-41.545 6.6322,-1.6305 13.5135,-4.6766 15.2921,-6.769 1.7786,-2.0924 6.8328,-3.8044 11.2313,-3.8044 4.3986,0 13.5539,-2.6357 20.3446,-5.8571 11.2809,-5.3513 12.7894,-7.3027 17.4679,-22.5979 11.0983,-36.2827 9.4524,-52.9021 -5.9165,-59.7394 -6.8892,-3.0647 -7.0567,-3.5401 -2.4152,-6.854 13.3912,-9.56064 33.9941,1.3444 40.0932,21.2213 l 3.5017,11.4108 6.7194,-6.1637 c 8.436,-7.7382 16.4667,-30.6702 14.0426,-40.10012 -0.9993,-3.88761 -4.9262,-11.53218 -8.7261,-16.98795 l -6.9094,-9.91957 9.0684,-1.83071 c 10.0387,-2.02655 15.0707,-0.17092 23.1373,8.532 5.5855,6.02628 7.0998,24.78802 3.1268,38.74295 -1.8462,6.4849 -1.7979,6.5044 2.7813,1.1212 9.9122,-11.65266 18.0183,-32.80458 18.0458,-47.08856 0.028,-7.82037 1.1628,-14.9039 2.5504,-15.7412 2.6727,-1.61292 19.9201,16.03456 19.9201,20.38238 0,2.46915 1.1628,2.36593 12.021,-1.06693 4.6277,-1.46311 4.681,-2.19964 0.7013,-9.71377 -6.0815,-11.48271 -5.4654,-16.6082 2.0059,-16.68484 4.0753,-0.0419 9.2838,-3.98562 14.6987,-11.13012 l 8.3866,-11.06538 5.2994,6.33663 c 2.9145,3.48515 6.5225,9.72486 8.0175,13.86601 3.4309,9.50354 5.9277,7.92245 16.57296,-10.49454 9.36826,-16.20812 12.88703,-17.75335 20.854,-9.15794 3.42564,3.6959 7.56749,5.2517 11.85213,4.45201 4.37498,-0.81662 7.68868,0.49463 9.87042,3.90566 3.58442,5.60399 10.35097,6.96828 10.35097,2.08698 0,-1.67641 -5.79533,-10.57558 -12.87861,-19.77596 -7.08328,-9.20037 -11.48463,-17.18166 -9.78093,-17.73618 1.70371,-0.55451 10.05305,2.82453 18.55416,7.50896 11.35417,6.25664 15.82762,7.57294 16.85466,4.95955 0.76896,-1.95671 6.38082,-6.56434 12.47072,-10.23923 6.08961,-3.67486 12.52794,-10.11253 14.30682,-14.30594 3.47922,-8.20111 8.16447,-10.21863 8.16447,-3.51564 0,5.11801 5.37004,5.14981 12.23562,0.0726 4.15588,-3.07368 14.17778,-3.60855 49.09398,-2.62027 44.39161,1.2565 57.81643,3.5705 70.52279,12.15567 3.85739,2.60629 9.75231,5.56829 13.09968,6.58227 3.34737,1.01395 17.86516,12.92684 32.26176,26.47309 14.39659,13.54624 28.80161,25.28561 32.01123,26.08747 3.20963,0.80186 11.32163,1.06868 18.02675,0.59291 11.23438,-0.79711 12.70468,-1.81558 18.73314,-12.97746 5.72155,-10.59356 6.06352,-12.82623 2.7271,-17.80443 -2.09814,-3.1306 -7.47323,-7.37359 -11.94471,-9.42888 -11.75478,-5.40315 -26.32306,-15.09583 -26.34551,-17.52822 0,-1.15011 4.55368,-0.2257 10.14226,2.05436 5.58886,2.28001 14.42577,4.14547 19.63759,4.14547 5.51059,0 9.47626,1.37829 9.47626,3.29352 0,1.81145 3.74432,7.06554 8.32072,11.67574 11.83895,11.92635 11.89814,22.32438 0.2076,36.52802 -17.73022,21.54211 -34.28415,26.48355 -61.18287,18.26347 -12.99897,-3.97242 -19.78151,-8.52135 -35.42454,-23.75931 -10.64132,-10.36544 -24.52791,-22.45192 -30.85907,-26.85884 -12.85392,-8.94687 -40.72527,-16.30153 -62.00933,-16.36297 -23.62122,-0.0682 -63.11999,9.66705 -63.11999,15.55705 0,0.94002 5.14308,8.36045 11.42936,16.48987 17.59416,22.75333 21.21926,34.16419 23.35583,73.51922 1.25596,23.1337 4.48214,27.8624 20.62816,30.235 7.3251,1.0765 16.47426,1.9016 20.33164,1.8336 61.74003,-1.0874 76.01291,-0.7708 80.92343,1.7952 3.12069,1.6308 10.10578,2.9651 15.52211,2.9651 5.41605,0 19.42102,4.2597 31.12165,9.466 28.02228,12.4686 52.68008,35.0255 63.24202,57.853 8.59004,18.5662 15.46965,52.5242 12.7692,63.0294 -0.96841,3.7681 -2.96555,16.1281 -4.43781,27.4666 -1.47254,11.3386 -5.06987,25.8973 -7.99446,32.3526 l -5.3173,11.737 8.48007,4.891 c 9.15673,5.2813 35.50813,30.4965 36.08211,34.5266 0.78101,5.4819 1.40661,7.0791 7.69204,19.6375 3.62735,7.2472 5.73811,15.1077 4.7394,17.6494 -0.99058,2.5203 -0.29541,10.3181 1.54463,17.3281 2.84521,10.8396 2.65332,14.1008 -1.28261,21.8041 -2.54531,4.9823 -4.62802,11.1029 -4.62802,13.6015 0,11.1648 -11.01332,26.61 -22.97907,32.2263 -34.9622,16.4094 -53.807,19.7545 -89.98168,15.972 -15.30722,-1.6005 -18.71014,-2.938 -21.79492,-8.5659 -2.55177,-4.6551 -6.05399,-6.669 -11.59768,-6.669 -4.36796,0 -7.94201,-1.1449 -7.94201,-2.5441 0,-1.3994 -4.41845,-7.1185 -9.81879,-12.7093 -5.40034,-5.5909 -9.8188,-11.2253 -9.8188,-12.5212 0,-5.9998 -8.06431,-0.9368 -23.94495,15.0335 -9.51049,9.564 -23.00404,21.2267 -29.98576,25.9167 -12.54646,8.4286 -17.76052,10.647 -57.61417,24.5137 l -20.37063,7.0878 5.64244,5.8642 c 7.54617,7.8433 7.11049,10.0294 -1.37126,6.8808 -10.1619,-3.7724 -9.31299,3.654 1.29243,11.3102 8.8616,6.3967 8.78558,11.9218 -0.12624,9.1602 -7.49399,-2.3225 -6.70203,2.2209 2.18454,12.533 7.439,8.6318 7.85167,8.745 25.94967,7.1184 24.21203,-2.1762 29.71841,-0.416 36.04648,11.5231 7.80482,14.7251 9.03891,22.7127 4.9282,31.899 -3.80885,8.5118 -3.98447,8.3941 -8.58079,-5.7627 -0.88902,-2.738 -3.14398,-3.7493 -5.98582,-2.6846 -2.50772,0.9395 -8.67168,-0.6607 -13.69778,-3.5559 -7.62583,-4.3934 -11.19118,-4.8368 -21.54412,-2.6811 -10.7715,2.2431 -13.72106,4.5333 -22.38545,17.379 -7.96949,11.8159 -9.14158,15.1094 -5.82058,16.3538 3.10779,1.1644 3.65259,3.7989 2.15677,10.4288 -1.10111,4.8786 -1.93234,14.1093 -1.84706,20.512 0.17394,13.1852 -1.39623,13.9776 -11.82996,5.9642 z m -151.63869,-42.9427 c -1.5264,-9.4109 -0.5936,-11.3622 11.1292,-23.2827 7.8166,-7.9482 15.2461,-13.0109 19.0934,-13.0109 3.4637,0 7.7186,-1.3871 9.4549,-3.0824 4.8797,-4.7642 22.23423,-0.3668 28.30842,7.173 l 5.33806,6.626 2.97986,-6.3861 c 2.60928,-5.5911 2.04708,-6.8095 -4.51496,-9.791 -13.85993,-6.2968 -22.09061,-7.6485 -33.82158,-5.5539 -7.4533,1.3307 -12.331,1.0337 -13.5059,-0.8223 -1.0113,-1.598 -0.5021,-3.3404 1.1314,-3.8721 1.6339,-0.5316 10.215,-6.4594 19.0693,-13.1725 16.49499,-12.5064 15.40061,-14.7903 -4.2224,-8.8107 -8.9216,2.7188 -11.9882,5.4615 -15.3914,13.7658 -4.9068,11.9742 -12.3133,15.6296 -35.0968,17.3224 -26.7153,1.9847 -33.0176,3.8159 -42.3129,12.2941 -6.5362,5.9614 -8.2003,9.0849 -5.9903,11.2428 2.2098,2.1576 5.6427,1.5147 12.356,-2.3143 5.1131,-2.9161 18.1331,-7.5877 28.9337,-10.3808 10.8007,-2.7934 22.1277,-6.7386 25.1712,-8.7672 15.2971,-10.1959 12.8669,0.9444 -3.0379,13.9252 -12.1877,9.9472 -20.7306,23.535 -20.7306,32.9728 0,2.8635 2.7521,4.1966 8.6627,4.1966 8.4361,0 8.6192,-0.2684 6.9966,-10.2718 z m 87.51522,-10.4271 c 3.42929,-2.3452 6.23494,-6.6358 6.23494,-9.5347 0,-3.4861 2.61236,-5.8826 7.71476,-7.0771 10.26037,-2.402 24.04006,-9.2931 22.1916,-11.0979 -0.81047,-0.7914 -10.12935,0.7379 -20.7084,3.399 -17.83878,4.4867 -19.5624,5.587 -23.74914,15.1595 -6.03912,13.8067 -3.14594,16.9901 8.31624,9.1512 z m 21.82971,-8.1426 c 5.27325,-4.0567 5.23089,-4.1652 -1.34826,-3.424 -3.73647,0.421 -7.31332,2.3061 -7.94846,4.1893 -1.57157,4.6593 2.7027,4.3076 9.29672,-0.7653 z m 2.11665,-27.082 c 12.0558,-2.0746 22.51815,-4.3563 23.24951,-5.0704 0.73136,-0.7141 -0.18235,-4.5393 -2.03109,-8.5004 -2.69007,-5.7648 -5.30552,-7.2017 -13.10753,-7.2017 l -9.7467,0 7.39159,5.6771 c 9.69732,7.4478 9.49113,11.946 -0.3229,7.0492 -4.24312,-2.1168 -11.93124,-4.7362 -17.0847,-5.8204 -6.8726,-1.4457 -10.39502,-4.2714 -13.21582,-10.6016 -2.11497,-4.7466 -3.89498,-7.1418 -3.95557,-5.3219 -0.0589,1.8196 -5.79085,6.5592 -12.73442,10.5323 -12.93752,7.4028 -14.2423,12.167 -3.34063,12.1991 3.38075,0 9.93381,2.4671 14.56267,5.4602 4.62886,2.9933 8.41611,5.426 8.41611,5.4065 0,-0.027 9.86396,-1.7333 21.91948,-3.808 z m -134.67008,-1.561 c 6.4013,-0.027 9.9905,-1.1356 8.9519,-2.7767 -2.4914,-3.9358 -15.443,-3.1546 -25.2483,1.523 -7.4292,3.5442 -7.5936,3.8553 -1.4027,2.6531 3.8574,-0.7491 11.8221,-1.3788 17.6991,-1.3994 z m -21.7989,-5.7243 c 9.0563,-4.634 14.3585,-5.4136 28.6468,-4.2117 9.6434,0.8114 17.5335,1.0048 17.5335,0.4304 0,-3.731 -27.9726,-6.1604 -41.8331,-3.6332 -22.4065,4.0854 -22.7678,4.2388 -20.9404,8.889 2.1355,5.4334 3.2949,5.3304 16.5932,-1.4745 z m 210.29449,-2.5307 c 2.09225,-3.3053 -8.95446,-3.3053 -16.83222,0 -4.52197,1.8975 -3.60125,2.3916 4.74388,2.5466 5.69491,0.1069 11.1348,-1.04 12.08834,-2.5466 z m -109.40017,-8.2322 c 2.2168,-3.5022 -0.36835,-3.4623 -7.20702,0.1123 -2.9846,1.5597 -5.4264,4.0682 -5.4264,5.5747 0,3.1459 9.84909,-1.2865 12.63342,-5.6856 z m 100.75458,1.0913 c 7.50381,-2.8115 4.91529,-5.6744 -3.97857,-4.3999 -4.62886,0.6634 -8.41611,2.2987 -8.41611,3.6343 0,2.8054 5.96702,3.1741 12.39468,0.7656 z m -55.87792,-6.5548 c -0.95354,-1.5065 -3.23739,-2.7202 -5.07491,-2.6972 -2.00752,0.027 -1.66162,1.102 0.86686,2.6972 5.38939,3.4007 6.36061,3.4007 4.20805,0 z m 57.51009,-5.5459 c 0,-1.5438 -2.96949,-3.9093 -6.59851,-5.2567 -7.71814,-2.8652 -24.26056,-26.0142 -24.26056,-33.9498 0,-6.9547 2.43394,-4.5264 11.43749,11.4116 3.97605,7.0385 9.65693,13.2388 12.62417,13.7781 5.05022,0.9182 5.0073,0.5684 -0.67357,-5.4783 -7.01483,-7.4663 -21.21028,-32.7812 -19.38315,-34.5655 0.6789,-0.6626 6.04838,6.3146 11.93237,15.5049 5.8837,9.1907 11.64817,16.7102 12.80988,16.7102 2.84745,0 2.68445,-6.4896 -0.24407,-9.724 -1.29608,-1.4312 -5.18629,-7.2245 -8.64503,-12.874 -7.40786,-12.0998 -4.14185,-13.9271 3.91265,-2.1891 3.35214,4.8856 6.27898,6.8923 7.42077,5.0885 1.85014,-2.9232 14.55706,-5.3334 27.00954,-5.1233 3.46575,0.058 5.99058,-1.2802 5.61074,-2.9752 -0.37985,-1.695 2.8828,-4.066 7.25048,-5.269 6.35388,-1.7501 28.30113,-14.3567 48.16624,-27.6673 12.90189,-8.645 30.0413,-27.0239 43.19456,-46.3184 23.5076,-34.4836 51.36633,-49.7524 91.4632,-50.1291 13.72836,-0.1287 19.03079,1.2222 28.75504,7.3281 6.55756,4.1172 12.01933,9.0115 12.13744,10.8757 0.11782,1.8643 0.66908,5.7566 1.22454,8.6494 1.61898,8.4322 -7.77172,23.0981 -18.3387,28.6408 l -9.75147,5.1145 -0.3661,21.0241 c -0.20199,11.5633 -1.05622,21.6978 -1.89952,22.5212 -3.00258,2.9317 -7.02015,-18.1835 -5.52742,-29.05 0.999,-7.2738 0.43287,-11.0538 -1.65629,-11.0538 -2.09841,0 -3.17483,7.4307 -3.17483,21.9131 l 0,21.9132 9.30962,0 c 10.85762,0 37.47217,-7.2848 44.71731,-12.2396 4.30625,-2.9451 4.44259,-3.8836 0.97347,-6.6947 -3.23684,-2.623 -4.24425,-2.2927 -5.09343,1.6692 -0.97992,4.5724 -1.28823,4.5325 -4.1556,-0.5393 -1.70342,-3.0131 -3.54178,-8.5599 -4.08518,-12.3262 -1.32497,-9.18 5.83573,-7.9808 16.91021,2.8323 8.27865,8.0829 14.36322,10.4424 14.36322,5.5698 0,-1.4049 -2.52484,-3.3371 -5.61074,-4.2934 -8.42397,-2.6104 -6.74916,-6.8478 2.70662,-6.8478 9.5506,0 16.95229,-9.2923 11.58,-14.5375 -4.73742,-4.6259 -3.63996,-9.3292 2.5456,-10.9084 7.05859,-1.8023 7.60928,-14.4232 0.94316,-21.6154 -4.06638,-4.387 -4.17327,-5.9371 -0.83095,-12.0352 4.21732,-7.6943 1.09241,-16.1456 -6.03828,-16.3313 -2.14105,-0.055 -6.18163,-1.3808 -8.97942,-2.9449 -4.57669,-2.5584 -4.64682,-3.1999 -0.70135,-6.397 2.41206,-1.9547 4.38536,-5.4427 4.38536,-7.7515 0,-3.6488 -0.67105,-3.605 -5.13018,0.3353 -2.82192,2.4934 -6.60917,4.5333 -8.41611,4.5333 -5.22865,0 -3.81082,-5.0113 2.32481,-8.2175 3.0859,-1.6125 5.61074,-4.1495 5.61074,-5.6377 0,-1.4882 -3.344,-0.5664 -7.43143,2.0483 -7.34446,4.6988 -7.39355,4.6854 -4.20805,-1.1263 4.98261,-9.0904 3.69607,-11.1089 -2.25776,-3.5425 -6.93067,8.8071 -10.48592,5.4783 -4.18169,-3.9156 2.64659,-3.9441 4.13287,-7.8343 3.30276,-8.6448 -0.83011,-0.8105 -3.79819,2.3094 -6.5957,6.9334 -2.79752,4.6239 -6.07643,8.4069 -7.28667,8.4069 -3.15043,0 -2.57814,-3.1242 2.00752,-10.9565 4.73799,-8.0928 5.31197,-13.6958 1.40269,-13.6958 -1.54296,0 -2.80537,2.2297 -2.80537,4.9549 0,5.4465 -8.18299,17.5765 -8.3269,12.3431 -0.0477,-1.7851 1.22005,-6.6082 2.82052,-10.7177 2.0092,-5.16 2.0092,-8.3514 0,-10.3132 -2.00949,-1.9617 -2.90973,-0.9206 -2.90973,3.3653 0,7.1418 -4.6976,16.8025 -8.17036,16.8025 -1.29889,0 -2.04259,-5.2386 -1.65209,-11.6414 0.39051,-6.4027 0.15149,-8.8679 -0.53077,-5.4782 -1.73849,8.6337 -6.40691,7.698 -6.8336,-1.3696 -0.31953,-6.792 -0.64412,-6.5227 -3.29996,2.7391 -3.91349,13.6462 -7.49903,13.0208 -7.85419,-1.3695 l -0.28699,-11.6414 -2.21709,9.1561 c -1.21949,5.0357 -3.77939,10.5824 -5.68901,12.3262 -2.72934,2.492 -3.17399,1.1197 -2.07906,-6.417 0.76587,-5.2729 0.82254,-11.1355 0.12624,-13.0279 -2.31386,-6.2845 -6.39848,-0.4873 -6.39848,9.0808 0,5.1841 -1.26242,9.4254 -2.80537,9.4254 -1.54296,0 -2.80537,-4.2413 -2.80537,-9.4254 0,-12.1717 -4.97421,-15.2946 -6.1303,-3.8485 -1.27223,12.5951 -7.89655,13.5817 -7.89655,1.1759 0,-6.8246 -1.26074,-9.8152 -4.13793,-9.8152 -3.10161,0 -3.71627,2.0582 -2.45469,8.2174 2.23055,10.8901 -2.50183,10.5375 -6.77048,-0.504 -1.85435,-4.797 -4.09865,-8.0117 -4.98739,-7.1439 -0.88874,0.8677 0.35179,6.1754 2.75656,11.7953 4.85777,11.3515 5.6876,22.1271 1.88128,24.4241 -1.37015,0.8267 -3.15997,-1.8738 -3.97718,-6.0015 -2.62723,-13.2689 -7.02044,-28.4358 -8.716,-30.0914 -3.90536,-3.8131 -3.96904,1.9467 -0.17393,15.8663 4.75987,17.4639 5.18039,24.5249 1.45991,24.5249 -1.4731,0 -3.43938,-4.6223 -4.36964,-10.2718 -2.67913,-16.2686 -3.93987,-20.9515 -6.80162,-25.2577 -5.47216,-8.2344 -5.41353,-0.6349 0.13465,17.4207 3.14539,10.2368 4.92455,19.3877 3.95361,20.3354 -2.33098,2.276 -6.97331,-5.0633 -7.02773,-11.1099 -0.0533,-5.9191 -9.10904,-26.7256 -11.63219,-26.7256 -1.01694,0 0.54312,7.5055 3.46716,16.6789 2.92432,9.1734 5.31674,19.1072 5.31674,22.0748 0,9.7604 -5.0968,2.557 -8.20571,-11.5973 -3.87394,-17.6368 -7.61405,-24.4173 -13.46942,-24.4173 -4.28773,0 -4.2824,0.263 0.0673,3.424 6.55138,4.759 13.95447,42.8794 7.58039,39.0328 -1.54296,-0.9311 -2.81239,-3.7773 -2.82108,-6.3247 -0.0281,-7.5244 -5.39164,-23.3994 -9.83114,-29.0842 -6.70568,-8.5864 -7.72627,-3.0901 -1.81452,9.7708 7.69373,16.7372 11.49052,29.0004 9.56183,30.8835 -3.45005,3.3686 -6.32499,1.3614 -6.53147,-4.5606 -0.23845,-6.838 -16.06102,-41.1031 -16.40243,-35.521 -0.11783,1.9317 1.67873,7.9372 3.99316,13.3457 4.70657,10.9985 5.55576,22.8601 1.63637,22.8601 -1.41446,0 -3.19223,-1.5408 -3.95108,-3.424 -0.75857,-1.8831 -0.85255,1.5066 -0.2076,7.5327 l 1.1704,10.9565 -4.10622,-8.2174 c -2.2586,-4.5196 -4.16317,-9.7582 -4.23302,-11.6413 -0.0701,-1.8832 -1.52388,-3.424 -3.23179,-3.424 -1.70819,0 -2.4143,-1.7591 -1.56932,-3.909 1.84285,-4.6883 -3.93257,-20.7433 -7.46172,-20.7433 -1.36987,0 -1.61169,2.1571 -0.53723,4.7935 1.87623,4.6045 6.88999,34.0049 7.00669,41.0872 0.0309,1.8831 -0.98188,3.4239 -2.25075,3.4239 -1.26887,0 -3.69944,-8.7828 -5.40118,-19.5172 -1.70173,-10.7344 -4.59267,-20.9035 -6.42429,-22.5979 -2.5268,-2.3376 -2.97258,-1.7591 -1.84818,2.3975 0.81524,3.0131 2.31723,11.465 3.33755,18.7818 2.21175,15.8583 -2.99979,15.503 -5.70164,-0.3887 -0.9513,-5.5966 -2.3307,-11.99 -3.06486,-14.2077 -2.28105,-6.8889 -6.55195,2.5239 -6.60104,14.5482 -0.0365,8.8888 1.91046,12.37 12.58124,22.4958 6.94329,6.5887 12.62417,14.4908 12.62417,17.5601 0,6.5619 -3.53421,7.2151 -8.35439,1.5443 -4.5001,-5.2942 -19.96077,-7.9961 -32.55492,-5.6892 -10.38801,1.9029 -30.5617,19.2863 -47.30275,40.7598 -6.72447,8.6253 -7.46537,10.9314 -4.16794,12.9688 2.20587,1.3632 6.00967,2.4972 8.45258,2.5203 8.56536,0.082 7.91367,3.5882 -2.11188,11.3674 -5.56305,4.3166 -11.10337,7.8485 -12.31165,7.8485 -1.20799,0 -3.02924,3.7008 -4.04674,8.2243 -1.34462,5.9781 -0.19357,10.8409 4.21394,17.8044 6.81425,10.7651 3.97213,12.8126 -4.74276,3.4171 -10.63403,-11.4644 -11.73935,-15.7893 -7.29284,-28.5312 2.94368,-8.4352 5.69042,-11.8712 9.48973,-11.8712 6.66191,0 6.81256,-2.4373 0.43764,-7.0801 -4.60025,-3.3503 -4.37947,-4.55 3.50671,-19.0554 4.62886,-8.5141 13.15382,-19.6753 18.94438,-24.803 5.79057,-5.1274 9.54303,-9.3227 8.33897,-9.3227 -3.07553,0 -14.65105,7.7885 -23.77664,15.998 -9.9282,8.9313 -10.06819,4.5048 -0.17674,-5.5764 4.14606,-4.2254 6.2355,-7.6824 4.64289,-7.6824 -5.1285,0 -36.93101,21.3639 -39.91985,26.817 -3.5847,6.54 -16.97389,15.3666 -19.4948,12.8518 -1.02312,-1.0209 6.97639,-9.7146 17.77707,-19.3195 10.80067,-9.6045 18.10586,-17.4962 16.23355,-17.5365 -1.8723,-0.041 -11.68997,7.4943 -21.81708,16.7441 -10.1271,9.2498 -18.97664,16.2672 -19.66592,15.5945 -0.689,-0.673 1.90344,-5.759 5.76138,-11.3025 13.82262,-19.8616 76.27437,-51.2404 101.9811,-51.2404 l 13.48092,0 1.75027,-18.4892 c 1.96208,-20.7227 17.74088,-56.0475 27.2567,-61.0202 3.00792,-1.5717 5.46879,-4.1308 5.46879,-5.6869 0,-1.5561 -3.66662,-0.2801 -8.14792,2.8355 -4.4813,3.1157 -9.53096,5.6648 -11.22148,5.6648 -1.69052,0 -3.07356,1.9218 -3.07356,4.2703 0,2.3488 -1.19144,3.5516 -2.64743,2.6729 -1.45599,-0.8785 -6.1129,4.1766 -10.34873,11.2338 -7.11414,11.8531 -7.90245,12.391 -10.34031,7.0571 -1.97751,-4.3276 -1.14067,-8.2536 3.34035,-15.6687 3.28845,-5.4419 4.5879,-9.0551 2.88757,-8.029 -1.70006,1.0258 -6.65855,9.4202 -11.01837,18.6538 -4.36011,9.2334 -8.02084,14.5821 -8.13502,11.8857 -0.11502,-2.6964 2.34249,-9.7839 5.45981,-15.7501 3.11733,-5.9661 5.03116,-10.8475 4.25323,-10.8475 -0.77821,0 -5.1616,7.0875 -9.74109,15.7501 -5.23763,9.9077 -8.41779,13.7179 -8.57321,10.2718 -0.20199,-4.5062 -1.07558,-4.02 -4.91361,2.7391 -3.886,6.8435 -4.84936,7.3672 -5.76167,3.133 -0.60231,-2.7964 0.28559,-6.4326 1.9733,-8.0804 1.68771,-1.6479 3.03008,-4.9067 2.98323,-7.2418 -0.0701,-3.4949 -0.59081,-3.3982 -2.94479,0.5478 -1.5727,2.6365 -4.55649,4.7935 -6.6305,4.7935 -2.07429,0 -20.00088,16.6392 -39.83737,36.9757 -22.91455,23.4929 -37.51846,36.4435 -40.04975,35.5163 -2.19099,-0.8028 -4.9627,0.088 -6.15947,1.9777 -1.19649,1.8906 -3.0601,2.5737 -4.14101,1.5183 -1.08118,-1.0554 2.9939,-7.1829 9.05546,-13.6163 6.06156,-6.4337 18.0576,-20.9421 26.65775,-32.2411 24.57981,-32.2923 56.08075,-59.775 80.96719,-70.6388 8.48624,-3.7046 27.38041,-10.0801 41.98713,-14.1679 21.82269,-6.1073 25.24861,-7.7531 19.2165,-9.2313 -19.33994,-4.7394 -23.40913,-64.1408 -6.5654,-95.8398 3.97857,-7.488 5.5305,-12.2341 3.44864,-10.5469 -2.08215,1.6871 -6.851,9.2193 -10.59729,16.7381 -3.84279,7.7122 -8.30502,13.1655 -10.23764,12.5118 -2.25832,-0.7638 -4.06273,3.528 -5.29429,12.5928 -1.17601,8.6571 -2.85278,12.7904 -4.52562,11.157 -1.67285,-1.6334 -1.10195,-8.5468 1.54071,-18.6613 2.30882,-8.8367 3.69439,-16.5641 3.07889,-17.1721 -2.03838,-2.0136 -9.04227,17.328 -11.06298,30.5512 -1.09353,7.156 -3.20766,13.0109 -4.69787,13.0109 -1.50171,0 -1.98508,-3.6631 -1.08428,-8.2174 0.89408,-4.5196 2.24121,-12.2235 2.99333,-17.1197 l 1.36762,-8.9022 -4.04646,8.2174 c -2.2255,4.5196 -4.10342,13.4561 -4.17299,19.8588 -0.0701,6.4028 -1.38894,11.6414 -2.93189,11.6414 -1.54296,0 -2.82473,-5.8549 -2.8483,-13.0109 -0.0309,-9.4103 -0.7956,-11.8739 -2.76244,-8.9023 -1.49583,2.2598 -2.73889,9.3474 -2.76245,15.7501 -0.0281,6.4028 -1.18527,11.6414 -2.58122,11.6414 -1.39624,0 -1.82321,-5.2386 -0.94878,-11.6414 1.44954,-10.6162 1.1791,-11.3103 -3.07244,-7.882 -2.82192,2.2755 -4.80784,8.2219 -5.03115,15.0653 -0.3647,11.1645 -0.39107,11.192 -2.10403,2.1946 l -1.73484,-9.1114 -7.30743,7.7418 c -16.07308,17.0285 -31.0936,39.5462 -43.06551,64.5607 -11.21643,23.4355 -18.35863,34.1341 -18.35863,27.4993 0,-4.0189 30.25059,-62.0737 36.99217,-70.9928 14.3764,-19.02 40.36255,-49.2302 46.39662,-53.9382 3.52747,-2.7522 7.98464,-6.5218 9.90492,-8.377 1.92027,-1.8551 12.84214,-9.7724 24.27038,-17.594 11.42851,-7.8215 19.83929,-14.221 18.69077,-14.221 -5.79729,0 -41.49254,22.1891 -60.12777,37.377 -11.62574,9.4751 -21.8328,16.5154 -22.68282,15.6451 -3.48091,-3.5649 40.50169,-39.254 60.73205,-49.28 19.95909,-9.8916 20.72327,-10.5976 13.12268,-12.1232 -10.12318,-2.0319 -29.2847,-13.7392 -38.68016,-23.6325 -9.50375,-10.0072 -15.3667,-27.3776 -18.71098,-55.43375 -3.08927,-25.91617 -8.76987,-40.30604 -22.24827,-56.35767 -9.77138,-11.63696 -9.73996,-10.29677 0.3849,16.43486 4.61988,12.197 6.28094,22.79165 6.44253,41.08716 0.19918,22.4297 -0.61746,26.381 -9.04647,43.8263 -5.0954,10.5457 -15.46405,28.4212 -23.04135,39.7234 -23.79599,35.4925 -37.31282,82.3456 -34.79192,120.5988 1.28654,19.5222 -2.02211,43.2488 -8.00989,57.4397 -1.58896,3.7664 -2.57421,9.8727 -2.18903,13.5698 0.61185,5.8727 0.13466,6.263 -3.7836,3.0886 -5.89745,-4.779 -5.77261,-0.6757 0.17393,5.7407 6.31012,6.8082 2.40813,9.867 -4.64121,3.6381 -3.09516,-2.7353 -5.62785,-3.6107 -5.62785,-1.9456 0,1.6654 2.19857,4.229 4.88611,5.6975 2.68727,1.4684 3.92864,3.6047 2.75852,4.7469 -1.17011,1.1425 -3.62117,0.6188 -5.44718,-1.1641 -4.83309,-4.719 -9.1197,-3.9759 -5.00282,0.8674 2.88925,3.3993 2.58515,4.146 -1.76065,4.3251 -2.95574,0.1206 -3.71936,0.8204 -1.74606,1.5978 6.28459,2.4759 3.75723,6.8487 -2.80537,4.8535 -6.11964,-1.8602 -6.09831,-1.7336 0.70134,4.1536 4.74725,4.1101 5.42699,5.5555 2.10403,4.4733 -16.13312,-5.2539 -15.2138,-5.1756 -9.8188,-0.8357 6.65827,5.3567 6.21614,8.33 -0.70134,4.7152 -3.93369,-2.0555 -5.61074,-2.064 -5.61074,-0.027 0,1.5969 3.04635,4.0342 6.76964,5.4164 l 6.76964,2.5131 -5.58157,17.278 c -5.66937,17.5494 -5.48337,40.7705 0.44129,55.1269 2.31723,5.615 2.4777,5.5208 2.64462,-1.5555 0.39051,-16.5417 8.4725,-4.4972 8.55582,12.7504 0.0281,5.6914 3.23291,10.924 11.25963,18.3794 6.17182,5.7325 11.22148,12.2483 11.22148,14.4796 0,2.2311 1.26242,4.8185 2.80537,5.7495 1.54296,0.9313 2.80537,-0.3314 2.80537,-2.8057 0,-9.2008 6.80948,-1.9059 7.14977,7.6595 0.19357,5.4703 1.7685,11.6109 3.49801,13.6453 1.72923,2.0346 2.41683,6.4151 1.52781,9.7344 -1.61674,6.037 2.9908,14.2232 8.00596,14.2232 1.46413,0 0.67834,-1.9368 -1.74634,-4.3043 -2.42468,-2.3674 -4.36992,-6.3734 -4.32307,-8.9022 0.0786,-4.1824 0.34365,-4.1648 2.94479,0.1945 6.4574,10.8248 7.18904,3.7902 0.92465,-8.8888 -3.71795,-7.5252 -6.68744,-15.8454 -6.59851,-18.4892 0.0898,-2.6438 3.03962,1.3561 6.55727,8.8888 3.51766,7.5326 8.58977,15.4646 11.2717,17.6266 3.80689,3.0693 3.52326,1.6923 -1.2944,-6.28 -3.39365,-5.6161 -5.4873,-10.8777 -4.65242,-11.6928 1.92392,-1.8785 21.6207,26.4765 21.6207,31.1251 0,1.9032 3.15604,3.4604 7.01343,3.4604 3.85738,0 7.01342,-1.263 7.01342,-2.8068 z m 243.01097,-83.582 c -0.96196,-2.448 -1.66919,-5.8911 -1.57128,-7.651 0.0982,-1.7599 1.38725,-0.2465 2.86568,3.361 1.47815,3.6082 2.18538,7.0513 1.57129,7.6507 -0.6141,0.5996 -1.90344,-0.9127 -2.86569,-3.3607 z m 6.94133,-4.4117 c -3.7073,-10.3835 -4.07312,-25.1664 -0.57061,-23.0529 1.37996,0.8327 3.06907,6.1442 3.75386,11.803 0.6848,5.6591 2.21569,12.4461 3.4018,15.0826 1.2554,2.7898 0.97346,4.7935 -0.67413,4.7935 -1.55698,0 -4.21704,-3.8817 -5.91092,-8.6262 z m 9.58118,-5.9305 c -4.62998,-10.8196 -5.48001,-18.3131 -2.07738,-18.3131 2.30153,0 9.16852,25.2506 7.37729,27.1274 -0.58015,0.6078 -2.96528,-3.3584 -5.29991,-8.8143 z m -279.11468,-41.6621 c 1.95169,-2.2959 4.12613,-3.6107 4.83225,-2.9213 1.94552,1.8996 -2.00725,7.0963 -5.39782,7.0963 -1.86024,0 -1.64731,-1.5717 0.56557,-4.175 z m 204.95697,-82.3362 c 0.13466,-3.1911 0.79953,-3.84 1.695,-1.655 0.81047,1.9774 0.71088,4.3399 -0.22162,5.2501 -0.93223,0.9103 -1.59514,-0.7078 -1.47338,-3.5951 z m -234.36511,-40.859 c 2.65837,-6.0261 6.60889,-15.7271 8.77885,-21.5578 5.54678,-14.9038 9.83899,-22.5578 26.06946,-46.4879 7.82474,-11.537 15.51454,-20.9764 17.08807,-20.9764 3.40263,0 -0.84947,8.4954 -10.43766,20.8531 -3.63885,4.6899 -14.26306,23.1791 -23.60971,41.0872 -17.01373,32.5987 -26.97448,47.6783 -17.88901,27.0818 z m 2.8741,-91.7613 c 1.48966,-14.6786 13.58557,-38.8488 30.8428,-61.6307 5.48058,-7.2354 11.68437,-19.3981 25.10218,-49.2128 l 3.73927,-8.3092 0.23004,7.8598 c 0.23285,8.0415 -13.41808,34.9923 -37.64414,74.3145 -7.42525,12.0522 -15.81751,28.6925 -18.64953,36.9784 l -5.14898,15.0653 1.52921,-15.0653 z m -35.24049,347.8713 c 0,-1.5065 -0.55659,-2.7391 -1.23717,-2.7391 -0.6803,0 -2.01734,1.2326 -2.97089,2.7391 -0.95354,1.5065 -0.39696,2.7391 1.23717,2.7391 1.63385,0 2.97089,-1.2326 2.97089,-2.7391 z m 28.97077,-7.5327 c -2.51417,-16.8164 -9.83366,-28.6517 -21.22571,-34.3198 -11.42403,-5.684 -24.36351,-20.3222 -29.87354,-33.795 -1.92056,-4.6963 -3.72385,-16.4061 -4.00719,-26.0219 -0.457,-15.506 -1.18447,-17.5765 -6.43107,-18.3079 -5.5711,-0.7765 -5.7844,-0.058 -3.6607,12.3262 2.7212,15.8676 12.0617,40.9318 17.53554,47.0544 2.18566,2.4444 6.47086,9.991 9.52283,16.7704 6.03519,13.4056 17.58518,25.7789 17.58518,18.8385 0,-2.1582 -1.96516,-6.6633 -4.36712,-10.0116 -2.40196,-3.3483 -3.26938,-6.0878 -1.92757,-6.0878 4.62577,0 17.11977,15.0834 18.71883,22.598 0.88145,4.1429 2.25804,10.6142 3.05869,14.3805 2.32145,10.9171 6.76712,7.9158 5.07183,-3.424 z m -48.8485,-11.6413 c -0.101,-2.709 -0.97543,-2.2425 -2.56523,1.3696 -3.31399,7.5301 -3.31399,11.855 0,6.8478 1.49582,-2.2598 2.64995,-5.9576 2.56523,-8.2174 z m -16.59211,-6.8479 c 0,-6.6016 -1.2624,-12.7647 -2.8053,-13.6957 -1.743,-1.0518 -2.8054,4.1342 -2.8054,13.6957 0,9.5616 1.0624,14.7476 2.8054,13.6957 1.5429,-0.931 2.8053,-7.0941 2.8053,-13.6957 z m 28.67007,12.7617 c 0.65084,1.907 1.85968,2.2584 2.7487,0.7993 2.15677,-3.5395 -2.48191,-14.9305 -6.08008,-14.9305 -1.59261,0 -2.8957,1.7481 -2.8957,3.8846 0,2.1365 -0.86742,6.1425 -1.92785,8.9022 -1.65489,4.3065 -1.2958,4.5163 2.5324,1.4794 3.51513,-2.7884 4.70685,-2.8169 5.62253,-0.1342 z m -17.53441,-12.7617 c 0,-12.6882 -4.81376,-12.2996 -5.06926,0.4095 -0.188,9.3808 0.517,12.0786 2.4011,9.1775 1.46746,-2.2598 2.66816,-6.5739 2.66816,-9.587 z m -31.05296,-6.3247 c -0.2496,-9.0813 -0.508,-9.4133 -2.5256,-3.2623 -3.245,9.8935 -3.245,17.0235 0,15.0653 1.5429,-0.931 2.6794,-6.2425 2.5256,-11.803 z m 38.60754,-1.2079 c -0.77821,-1.8832 -1.41503,-0.3424 -1.41503,3.4239 0,3.7663 0.63682,5.3071 1.41503,3.4239 0.77821,-1.8831 0.77821,-4.9647 0,-6.8478 z m -46.78684,-5.6399 c -0.034,-4.879 -0.5515,-5.2332 -2.7624,-1.8928 -3.5718,5.3964 -3.5718,11.7425 0,9.587 1.5429,-0.931 2.786,-4.3935 2.7624,-7.6942 z m 37.71905,-9.7999 c 0.84553,-1.3358 -0.34254,-3.952 -2.63985,-5.8135 -3.4761,-2.8169 -4.1772,-2.4094 -4.1772,2.4288 0,5.8763 3.9867,7.8559 6.81705,3.3847 z m -11.28905,-9.487 c 1.4408,-7.4992 -0.087,-12.1311 -8.3589,-25.3371 -9.9995,-15.9645 -10.1044,-16.4425 -8.6594,-39.4431 1.0229,-16.2754 3.518,-27.8168 8.2913,-38.348 3.7556,-8.2859 7.8127,-18.1372 9.0156,-21.8915 1.9012,-5.9338 1.6235,-6.3696 -2.1236,-3.3333 -2.3709,1.9213 -5.8621,7.1503 -7.7583,11.62 -1.8961,4.4695 -4.5208,8.1265 -5.8324,8.1265 -1.3117,0 0.7892,-7.1456 4.6685,-15.8794 5.5198,-12.4272 6.4557,-17.3401 4.3056,-22.5979 -2.7226,-6.6575 -2.7492,-6.6438 -2.9361,1.4989 -0.1963,8.5686 -10.4671,27.8346 -13.3423,25.0275 -0.9081,-0.8869 -0.3324,-3.1829 1.2795,-5.1025 4.9998,-5.9538 9.7812,-27.1939 6.7812,-30.1231 -1.7531,-1.7117 -3.3802,1.0849 -4.5846,7.881 -1.0267,5.7941 -3.7521,13.616 -6.0565,17.3824 l -4.1898,6.8478 1.5755,-8.2174 c 3.9348,-20.522 4.5186,-27.4797 1.8384,-21.9132 -1.4507,3.0131 -3.4038,7.8118 -4.3405,10.6638 -0.9367,2.8523 -2.2637,4.6385 -2.9487,3.9696 -0.6848,-0.6689 0.1346,-5.6079 1.8221,-10.9755 2.2215,-7.0673 2.2198,-11.1842 0,-14.9259 -2.8786,-4.8395 -3.0787,-4.7708 -3.1586,1.0842 -0.1094,7.9147 -8.0051,26.6469 -10.2921,24.4137 -0.9445,-0.922 0.3344,-6.683 2.8421,-12.802 5.7822,-14.1098 5.9244,-18.2703 0.4742,-13.8535 -2.2469,1.8208 -5.2279,2.6209 -6.6246,1.778 -4.0064,-2.4175 -29.0794,48.8453 -30.6824,62.7311 -0.788,6.8268 -2.5276,13.0731 -3.8661,13.8806 -4.8395,2.9205 -2.1506,-17.0013 4.2822,-31.7248 22.6107,-51.7509 24.1191,-55.844 21.2248,-57.5905 -1.7491,-1.0554 -2.2314,-4.8773 -1.1476,-9.0934 3.5325,-13.7426 -1.1483,-7.2658 -5.6315,7.7923 -6.1076,20.5132 -10.3746,19.1798 -5.0214,-1.5689 3.8574,-14.9525 3.8552,-17.0605 -0.028,-20.8466 -3.8815,-3.7898 -4.5052,-3.3612 -6.2235,4.2769 -2.9229,12.9937 -6.6857,12.7548 -5.5136,-0.35 0.5728,-6.403 0.317,-9.1767 -0.5687,-6.1636 -0.8856,3.013 -2.5509,6.7108 -3.7006,8.2174 -1.1499,1.5065 -0.9005,7.0374 0.5544,12.2908 2.5027,9.0372 2.8581,9.2671 6.6005,4.27 2.1755,-2.9048 3.9555,-7.5112 3.9555,-10.2364 0,-2.7252 1.2021,-4.9549 2.6713,-4.9549 3.0335,0 -3.4074,23.0264 -7.9294,28.3461 -1.6077,1.8916 -2.2462,5.9672 -1.4186,9.0567 0.8275,3.0897 0.078,10.7856 -1.6628,17.1021 -3.7763,13.6938 -15.8052,22.1654 -31.4942,22.181 -23.5174,0.027 -34.154,-33.964 -22.4996,-71.894 5.542,-18.0361 6.41,-38.1647 2.4516,-56.8356 -1.8768,-8.8525 -1.6072,-8.6426 3.5196,2.7392 6.7595,15.0071 7.3829,36.987 1.6574,58.4497 -4.8892,18.3274 -5.4559,38.2431 -1.3039,45.818 3.8905,7.0979 17.1801,6.9048 23.9017,-0.3474 4.1469,-4.4741 4.4681,-6.1069 1.548,-7.8693 -2.8109,-1.696 -2.9507,-3.5625 -0.5897,-7.8701 3.8016,-6.9357 3.948,-19.6533 0.2896,-25.1806 -2.2581,-3.4116 -2.7437,-3.1794 -2.8618,1.3695 -0.079,3.0131 -2.0633,8.5599 -4.4112,12.3262 l -4.2686,6.8478 1.5508,-7.2781 c 0.8528,-4.003 2.2059,-9.5498 3.0065,-12.3262 0.8007,-2.7764 -0.4598,-1.042 -2.8014,3.8543 -2.3414,4.8962 -4.5714,8.9022 -4.9554,8.9022 -2.3594,0 -1.7183,-49.2063 0.6598,-50.6413 1.736,-1.0475 2.9726,2.3746 3.1471,8.7077 l 0.2869,10.4334 2.3936,-9.587 c 2.2779,-9.1231 1.0921,-18.9479 -2.6446,-21.9131 -1.5699,-1.2459 -4.6811,-8.4705 -10.0259,-23.2827 -1.9769,-5.4783 -1.9769,-5.4783 2.7187,0 4.4283,5.1664 15.7892,27.3967 19.1458,37.4629 0.8422,2.5263 -0.287,6.0669 -2.5097,7.8681 -2.2227,1.8011 -3.9418,5.8972 -3.82,9.1026 0.216,5.6421 0.5622,5.1353 4.3009,-6.2719 2.94,-8.9699 6.8852,2.9434 9.3301,28.1741 2.3826,24.5882 2.1315,27.4728 -3.151,36.2148 -3.1569,5.224 -9.0653,11.2628 -13.13,13.419 l -7.3902,3.9203 7.8486,0.1095 c 8.9031,0.1233 20.7272,-10.5758 23.4678,-21.2374 5.1217,-19.9256 -7.1285,-76.8792 -23.2274,-107.9863 -7.2224,-13.9556 -8.4991,-19.9975 -3.6009,-17.0418 2.2434,1.3538 2.2434,0.3259 0,-3.767 -1.697,-3.0958 -3.047,-7.8669 -3.0001,-10.6023 0.079,-4.5298 0.3776,-4.4847 3.3589,0.5047 1.8002,3.013 4.8625,9.7924 6.805,15.0653 2.1508,5.8393 3.5406,7.4454 3.5552,4.1087 0,-3.0131 -1.7806,-8.5598 -3.9856,-12.3262 -2.205,-3.7663 -4.054,-8.3886 -4.1087,-10.2718 -0.1627,-5.5694 7.267,-3.9102 12.2636,2.7392 4.5728,6.0851 4.5947,6.087 1.7298,0.1526 -1.5957,-3.3058 -4.157,-6.7682 -5.6918,-7.6943 -3.6374,-2.195 -3.5993,-6.8387 0.056,-6.8387 1.5657,0 5.3482,4.006 8.4058,8.9022 3.1939,5.1149 5.5633,7.0331 5.5695,4.5087 0.028,-8.6412 -12.2508,-17.6316 -29.0875,-21.3105 l -16.453,-3.5951 1.4468,-10.5317 c 1.3435,-9.7799 0.8834,-10.6526 -6.4462,-12.2244 -11.0708,-2.3741 -29.7841,3.1398 -34.9109,10.2865 -7.4623,10.4025 -5.5254,11.9733 13.3188,10.8017 16.8485,-1.0475 18.0607,-0.6899 27.3524,8.0679 l 9.7228,9.164 -7.7159,0.8865 c -9.6305,1.1065 -14.3626,9.3252 -12.1124,21.0367 1.2756,6.6391 0.611,9.3983 -2.5487,10.5822 -4.1957,1.5721 -4.6513,0.2668 -5.5165,-15.8085 -0.1824,-3.3668 -2.5147,-5.4162 -6.4928,-5.7024 -3.4152,-0.2457 -8.622,-2.5783 -11.5704,-5.1836 -4.1907,-3.7029 -5.7247,-3.9529 -7.0286,-1.1454 -0.9171,1.9752 -1.077,1.1261 -0.3549,-1.8869 1.8976,-7.9189 -1.9828,-12.3717 -9.1797,-10.5342 -6.4193,1.6391 -8.3339,7.5606 -3.4063,10.5342 1.543,0.931 2.8054,3.2559 2.8054,5.1663 0,2.3824 -4.8463,1.2871 -15.4296,-3.4873 -8.4862,-3.8284 -15.4295,-8.5457 -15.4295,-10.4829 0,-1.9373 -1.2624,-3.5223 -2.8054,-3.5223 -1.5429,0 -2.8053,1.4682 -2.8053,3.2627 0,1.7944 -1.7904,0.8719 -3.9786,-2.0501 -2.1885,-2.922 -4.5007,-4.6983 -5.1383,-3.9474 -0.638,0.7509 -3.266,4.4129 -5.8402,8.1378 -4.2291,6.1194 -4.7018,6.2515 -4.9019,1.3696 -0.1599,-3.9104 -1.0798,-3.1329 -3.328,2.8144 l -3.1066,8.2174 -2.0031,-6.8478 c -1.8128,-6.1973 -2.0507,-5.937 -2.5043,2.7391 -0.275,5.2729 -1.1379,8.0463 -1.9161,6.1631 -2.6567,-6.4284 -7.1991,-3.5514 -5.4062,3.4239 1.0152,3.9489 0.5501,6.8479 -1.0983,6.8479 -4.915,0 -3.1238,10.698 2.7518,16.4349 7.9184,7.7315 9.7422,6.8863 10.3683,-4.8058 0.7892,-14.7352 11.5312,-22.5541 31.0109,-22.5721 8.1005,-0.01 14.7282,1.219 14.7282,2.7256 0,1.5065 -4.6289,2.7391 -10.2865,2.7391 -21.1825,0 -6.0402,3.1864 18.9994,3.998 22.9807,0.7448 26.6527,1.5644 31.1143,6.9441 6.6883,8.0646 6.4036,15.5539 -0.7333,19.2831 -4.5079,2.3557 -5.0842,3.8589 -2.6003,6.7815 1.7556,2.0651 5.3086,2.981 7.896,2.0352 4.0987,-1.4982 4.2086,-1.1245 0.8542,2.902 -2.2779,2.7342 -2.632,4.6215 -0.8671,4.6215 1.6409,0 3.7637,-1.2326 4.7172,-2.7391 0.9536,-1.5065 3.1174,-2.7391 4.8084,-2.7391 1.6911,0 0.7898,2.4652 -2.003,5.4782 -5.3535,5.776 -2.0967,7.7995 3.6001,2.237 1.8261,-1.7827 4.1509,-2.4298 5.1667,-1.4381 1.0158,0.9918 -1.1724,4.2583 -4.8626,7.259 -7.1831,5.8406 -5.5007,7.3979 3.1235,2.8913 3.2015,-1.673 5.8868,-1.7501 6.8695,-0.1972 0.8877,1.4022 -0.9294,3.3375 -4.0377,4.3007 -7.9569,2.4658 -7.4477,9.5454 0.5397,7.506 l 6.1912,-1.5808 -6.1912,7.6849 c -4.1101,5.1018 -6.1911,11.4797 -6.1911,18.975 0,6.2094 -1.132,15.1437 -2.5153,19.8536 -2.6853,9.1422 0.9597,51.4187 5.4213,62.8763 2.1467,5.5133 4.4861,6.5895 14.3243,6.5895 13.3409,0 13.2433,2.9605 -0.1094,3.3314 -13.8431,0.3843 -10.0789,4.8861 4.0854,4.8861 7.8121,0 12.115,1.066 11.056,2.7391 -0.9536,1.5065 0.2356,2.7391 2.6398,2.7391 2.4054,0 4.3736,1.2327 4.3736,2.7392 0,1.5065 -5.7861,2.7391 -12.8578,2.7391 -9.076,0 -12.4943,1.0072 -11.621,3.424 1.3595,3.7627 3.1454,3.8438 21.6734,0.9836 14.515,-2.2406 12.774,1.669 -2.8053,6.2995 -9.4365,2.8046 -9.2488,2.8821 4.8148,1.9949 16.0832,-1.0149 17.4865,2.483 2.1248,5.2967 -5.3327,0.9768 -9.0658,2.7714 -8.2958,3.9882 0.7701,1.2167 5.8795,1.0044 11.3545,-0.4717 5.475,-1.4759 12.0925,-2.2026 14.7063,-1.6145 2.7857,0.627 -0.1823,2.4414 -7.1711,4.3857 -15.7662,4.3854 -15.2056,6.947 1.001,4.5741 8.9514,-1.3107 12.3495,-0.9853 11.0559,1.0584 -1.0273,1.6229 -4.2436,2.9509 -7.1475,2.9509 -2.9038,0 -6.1827,1.4268 -7.2866,3.1705 -1.4069,2.2231 0,2.6436 4.7438,1.4071 3.7129,-0.9699 8.9601,-1.7804 11.6603,-1.801 4.1898,-0.033 4.9094,-2.7635 4.9094,-18.636 0,-10.2291 1.8916,-25.6899 4.2038,-34.3571 4.7318,-17.7381 23.2843,-58.0753 25.649,-55.7665 2.529,2.4693 -1.8561,17.7058 -6.0815,21.1298 -4.3382,3.5154 -16.3183,32.7823 -14.2468,34.8046 0.7179,0.7012 3.8492,-3.4669 6.9581,-9.2624 7.5493,-14.0732 19.007,-27.4339 21.4766,-25.044 1.0957,1.0603 -1.7197,6.6071 -6.2571,12.3262 -4.5372,5.719 -11.1043,15.0203 -14.5939,20.6698 -3.4893,5.6495 -7.5038,10.2718 -8.921,10.2718 -1.417,0 -2.5765,10.3548 -2.5765,23.0107 l 0,23.0105 -10.5201,2.9626 -10.5202,2.9624 10.5202,-1.1485 c 5.7861,-0.6316 10.5201,0 10.5201,1.4183 0,1.4118 -3.156,2.5669 -7.0134,2.5669 -8.6377,0 -9.1175,5.6166 -0.9073,10.6229 9.134,5.5698 11.9029,-0.1753 15.8274,-32.8333 3.4604,-28.798 7.765,-39.325 23.9595,-58.5944 11.8039,-14.0452 10.9303,-5.7796 -1.2756,12.0673 -12.2724,17.9442 -16.3873,30.0531 -16.4967,48.5442 -0.037,6.2187 -2.0294,15.8926 -4.4277,21.4971 -2.3986,5.6049 -3.8218,12.2265 -3.1631,14.7152 0.8518,3.2172 2.2898,1.9522 4.9759,-4.3777 5.1103,-12.0418 9.1663,-11.2608 7.1139,1.3696 -1.3393,8.2421 -1.1286,9.0192 1.0666,3.9329 1.5048,-3.4867 4.0091,-5.5709 5.565,-4.6319 1.5561,0.939 2.8292,0.4018 2.8292,-1.1937 0,-1.5953 1.3474,-2.9008 2.9945,-2.9008 1.6546,0 2.2821,2.451 1.4027,5.4783 -0.8756,3.0131 -2.3582,8.098 -3.295,11.2995 -1.0671,3.6469 -0.6236,5.1699 1.1867,4.0775 1.5895,-0.9592 3.7188,-5.4279 4.7316,-9.9302 1.0127,-4.5021 3.1403,-8.1859 4.7281,-8.1859 2.719,0 1.7899,7.3521 -2.2179,17.5499 -0.9432,2.3998 -0.4578,4.3632 1.0784,4.3632 1.5365,0 3.6223,-4.3141 4.6353,-9.587 1.7323,-9.0156 7.1478,-13.6248 7.2415,-6.1631 0.028,2.3215 1.0012,2.101 3.0189,-0.6848 2.1267,-2.936 3.3672,-3.1752 4.3463,-0.8387 0.7538,1.7985 3.3283,2.5367 5.721,1.6402 3.4792,-1.3038 3.9469,-0.3131 2.3341,4.9472 -1.9672,6.4162 -1.9085,6.4433 2.3924,1.0992 5.0138,-6.2299 5.9036,-2.3672 1.8513,8.0391 -1.5046,3.8644 -1.6451,7.0262 -0.312,7.0262 1.3328,0 3.2169,-4.1295 4.1867,-9.1767 z m -145.1925,-246.8455 c -0.8694,-2.2116 -0.3731,-4.7495 1.1025,-5.64 1.4756,-0.8904 2.6828,0.919 2.6828,4.021 0,6.6139 -1.5601,7.2811 -3.7853,1.619 z m -19.5927,-26.9085 c -2.829,-2.8248 -4.6303,-5.6368 -4.0033,-6.2489 2.0084,-1.9611 11.3629,6.0556 10.2337,8.7704 -0.5981,1.4379 -3.4018,0.3032 -6.2304,-2.5215 z m 205.72701,279.2994 c 0,-0.4906 -3.47165,-3.8803 -7.71477,-7.5326 l -7.71477,-6.6405 6.80106,7.5326 c 6.35669,7.0404 8.62848,8.7888 8.62848,6.6405 z m -56.99641,-10.578 c -0.8955,-2.185 -1.5604,-1.5361 -1.695,1.655 -0.1207,2.8873 0.5414,4.5053 1.4736,3.5951 0.9323,-0.9102 1.0319,-3.2727 0.2217,-5.2501 z m 344.71348,-31.6714 c 0.81973,-4.8962 2.80649,-8.9022 4.41509,-8.9022 1.85154,0 2.2384,3.9679 1.05398,10.8131 -1.02929,5.9469 -0.8245,12.6354 0.45475,14.8631 1.50564,2.6222 2.39803,-0.4656 2.53072,-8.7587 0.11222,-7.0448 1.05931,-16.1029 2.10291,-20.1294 1.71043,-6.5972 0.88678,-7.6463 -8.34037,-10.6197 -9.46952,-3.0514 -10.63375,-2.81 -15.50808,3.212 -8.49747,10.4983 -11.89449,18.2418 -4.05797,9.25 7.97763,-9.1533 9.59436,-6.1723 3.17287,5.85 -4.76324,8.9173 -5.63066,22.9111 -1.42008,22.9111 1.54296,0 2.80537,-4.1775 2.80537,-9.2835 0,-5.4942 2.37727,-11.9233 5.82395,-15.7501 l 5.82367,-6.4666 -1.68322,6.8479 c -4.44174,18.0685 -4.8575,22.0942 -2.75039,26.6223 1.84201,3.9577 2.44152,3.3277 3.17821,-3.3396 0.49963,-4.5196 1.57886,-12.2234 2.39859,-17.1197 z m -43.70626,8.836 c -1.9517,-2.296 -4.12614,-3.6108 -4.83225,-2.9213 -1.94553,1.8996 2.00724,7.0963 5.39781,7.0963 1.86024,0 1.64731,-1.5717 -0.56556,-4.175 z m 19.69397,-4.0425 c 0,-3.013 -0.48392,-5.4782 -1.07557,-5.4782 -0.59138,0 -1.73569,2.4652 -2.54279,5.4782 -0.80683,3.0131 -0.3229,5.4783 1.07558,5.4783 1.39847,0 2.54278,-2.4652 2.54278,-5.4783 z m -5.69658,-12.3261 c 0,-1.5065 -1.2237,-0.8902 -2.71953,1.3696 -1.49582,2.2598 -2.71952,5.3413 -2.71952,6.8478 0,1.5066 1.2237,0.8902 2.71952,-1.3695 1.49583,-2.2598 2.71953,-5.3414 2.71953,-6.8479 z m -304.88681,-24.2195 c 0.8658,-14.8273 1.0655,-26.4623 0.4444,-25.8559 -2.5464,2.4863 -6.4442,39.1328 -4.9419,46.466 0.8907,4.3495 1.9132,7.5573 2.2718,7.1284 0.3588,-0.429 1.3603,-12.9113 2.2257,-27.7385 z m 275.76426,12.5921 c -3.06458,-2.9922 -5.16609,1.7662 -2.96583,6.7158 2.08635,4.6933 2.23756,4.6889 3.4001,-0.096 0.66908,-2.7545 0.47355,-5.7333 -0.43427,-6.6197 z m 25.21804,-8.4615 c 4.74219,-7.2713 4.72508,-7.2683 -4.03974,0.7426 -9.85863,9.011 -10.59504,10.2592 -4.76239,8.0739 2.22185,-0.8327 6.18275,-4.7998 8.80213,-8.8165 z m 5.39304,5.0236 c 2.79274,-3.0131 4.44651,-5.4783 3.67503,-5.4783 -0.77147,0 -3.68766,2.4652 -6.4804,5.4783 -2.79275,3.0131 -4.44651,5.4783 -3.67504,5.4783 0.77148,0 3.68766,-2.4652 6.48041,-5.4783 z m -14.01731,-7.7515 c -0.86237,-0.842 -4.37358,1.3225 -7.8023,4.8099 l -6.23409,6.3412 7.80229,-4.81 c 4.29138,-2.6455 7.09675,-5.4988 6.2341,-6.3411 z m 13.96709,-31.6081 c 12.58433,-8.1172 12.11864,-9.0131 -1.71127,-3.2933 -5.20284,2.1516 -15.2124,9.8555 -22.24322,17.1197 -20.03539,20.6994 -22.26931,25.7343 -3.89217,8.7716 9.17131,-8.4659 21.70262,-18.635 27.84666,-22.598 z m -290.38692,28.2962 c -6.6521,-4.1079 -10.2464,-2.8339 -4.3315,1.5353 2.9734,2.1962 6.09269,3.3226 6.93206,2.503 0.83965,-0.8195 -0.33075,-2.637 -2.60056,-4.0383 z m 353.77566,-1.455 c 2.96612,-2.6211 5.39305,-6.9816 5.39305,-9.6903 0,-8.0101 -6.16789,-18.8478 -10.9704,-19.2767 -11.87934,-1.0606 -24.2485,1.4084 -27.41576,5.4731 -5.08502,6.5257 -4.47345,19.6749 1.19957,25.7958 5.94206,6.411 23.36032,5.1499 31.79354,-2.3019 z m -72.08538,-9.0378 c 2.86961,-3.0961 9.48299,-7.0035 14.69677,-8.6837 8.40348,-2.7079 13.21441,-8.1081 7.22355,-8.1081 -3.95782,0 -26.99215,15.3726 -32.81105,21.8972 l -5.61074,6.2913 5.64216,-2.884 c 3.10302,-1.586 7.98997,-5.417 10.85931,-8.5127 z m -416.96808,0.4941 c -2.7001,-0.6889 -7.1186,-0.6889 -9.8188,0 -2.7001,0.6889 -0.4909,1.2526 4.9094,1.2526 5.4004,0 7.6096,-0.5637 4.9094,-1.2526 z m 138.16451,-0.8511 c 0,-1.5065 -2.59941,-2.7391 -5.77631,-2.7391 -3.177,0 -4.996,1.2326 -4.0425,2.7391 0.9536,1.5066 3.553,2.7392 5.7763,2.7392 2.2235,0 4.04251,-1.2326 4.04251,-2.7392 z m -1.1979,-12.385 c -5.76531,-4.2585 -8.98701,-3.5817 -5.93081,1.2463 1.0169,1.6068 3.9839,2.8821 6.59288,2.8342 4.16513,-0.077 4.08434,-0.5744 -0.66207,-4.0805 z m 118.64556,-8.2462 c 2.61095,-2.549 -7.94117,-1.2077 -14.9198,1.8969 -11.27731,5.017 -8.31905,8.3303 3.23066,3.6184 5.70696,-2.3283 10.96703,-4.81 11.68914,-5.5153 z m 241.84702,0.6963 -6.49443,-6.0869 4.92623,7.6181 c 2.70943,4.1901 5.63206,6.9292 6.49443,6.0869 0.86237,-0.842 -1.35443,-4.27 -4.92623,-7.6181 z m -276.58845,-45.4265 c 38.81482,-39.7527 64.09934,-54.6734 116.47504,-68.7334 15.00733,-4.0286 31.98122,-10.8971 30.50139,-12.3422 -1.31292,-1.2818 -26.05432,4.9126 -50.13898,12.5532 -46.0364,14.6046 -73.54334,34.1796 -114.74749,81.6585 -28.56736,32.9179 -39.66513,48.9206 -15.05305,21.7064 7.30041,-8.0723 22.1338,-23.7514 32.96309,-34.8425 z m -77.85519,44.5324 c -0.93222,-0.9099 -3.35185,-1.0074 -5.37705,-0.2163 -2.2378,0.8746 -1.5733,1.5235 1.695,1.6549 2.95714,0.1178 4.61428,-0.5283 3.68205,-1.4386 z m 139.92681,-8.5507 c -1.87034,-1.8265 -18.20376,1.9861 -19.88446,4.6414 -0.77681,1.2275 3.67251,0.9713 9.88753,-0.5689 6.21473,-1.5402 10.71342,-3.373 9.99693,-4.0725 z m 200.28267,1.9883 c -2.31443,-1.4602 -7.3641,-2.5282 -11.22148,-2.3732 -6.47003,0.2602 -6.36146,0.4443 1.40268,2.3732 12.12621,3.0128 14.59325,3.0128 9.8188,0 z m -343.55404,-20.0831 c 2.70157,-4.4654 3.41666,-7.2166 1.58896,-6.1138 -3.77266,2.2765 -17.15485,22.2462 -17.06005,25.4576 0.076,2.586 8.8097,-8.3336 15.47109,-19.3438 z m 170.65599,16.763 c -0.75128,-1.1869 -4.52197,-2.1582 -8.37936,-2.1582 -3.8888,0 -6.25289,1.2017 -5.30636,2.6973 0.93924,1.4835 4.70994,2.4545 8.37964,2.1581 3.66971,-0.2966 6.05736,-1.5103 5.30608,-2.6972 z m -344.56598,-30.2344 c 0.1347,-28.2124 -2.373,-34.4587 -6.0469,-15.0653 l -2.2056,11.6414 -1.7452,-9.587 -1.7452,-9.587 -2.2522,10.4454 c -1.2389,5.7448 -1.5856,15.2976 -0.7709,21.2284 0.8147,5.9305 0.4393,10.7829 -0.8343,10.7829 -3.8075,0 -6.2392,-16.055 -4.4982,-29.6984 1.1174,-8.7586 0.8273,-11.0409 -0.9257,-7.2801 -1.4047,3.0131 -2.6427,8.868 -2.751,13.011 -0.1094,4.1429 -1.4596,7.5326 -3.0026,7.5326 -4.3884,0 -3.2988,6.0242 2.8797,15.9191 4.8009,7.688 7.0446,8.9408 14.7179,8.2174 l 9.0534,-0.8538 0.1263,-26.7066 z m 169.5552,-5.6399 c -0.034,-4.879 -0.5515,-5.2331 -2.7624,-1.8928 -3.5718,5.3964 -3.5718,11.7425 0,9.587 1.5429,-0.931 2.786,-4.3935 2.7624,-7.6942 z m 6.6681,4.9551 c 0.88818,-2.2598 0.39191,-4.1087 -1.10251,-4.1087 -1.49442,0 -2.71728,1.8489 -2.71728,4.1087 0,2.2598 0.49627,4.1087 1.10251,4.1087 0.60652,0 1.8291,-1.8489 2.71728,-4.1087 z m -203.3237,-15.0653 c 0.2104,-3.6521 -0.064,-3.6521 -2.4827,0 -1.4959,2.2598 -2.613,7.1903 -2.4828,10.9566 l 0.2357,6.8478 2.2459,-6.8478 c 1.2355,-3.7663 2.3526,-8.6968 2.4828,-10.9566 z m 411.82301,10.443 c -0.89547,-2.185 -1.56035,-1.5361 -1.695,1.655 -0.12064,2.8873 0.54143,4.5053 1.47366,3.5951 0.93222,-0.9102 1.03181,-3.2727 0.22162,-5.2501 z M -1003.426,1254.616 c -3.8557,-3.1204 -9.3986,-7.0387 -12.3178,-8.7074 -4.4519,-2.5452 -5.2242,-5.9516 -4.7922,-21.1333 0.4851,-17.041 0.028,-18.5049 -7.9358,-25.0421 -4.6482,-3.8188 -11.5508,-6.9432 -15.3392,-6.9432 -10.8694,0 -25.6279,-7.1724 -27.6671,-13.4456 -1.9422,-5.9742 -7.0948,-7.9487 -7.0948,-2.7186 0,5.3943 17.253,18.9034 24.1424,18.9034 3.6942,0 6.7167,1.2326 6.7167,2.7391 0,3.635 -7.3047,3.4782 -14.9125,-0.3199 -5.4907,-2.7411 -5.6902,-2.6207 -1.9198,1.158 4.3899,4.3993 23.5332,7.2281 26.8693,3.9705 1.0574,-1.0322 4.281,-0.6441 7.1641,0.8625 4.2577,2.2249 5.2396,5.9347 5.2303,19.7624 0,16.7611 0.1936,17.213 13.3255,29.3494 7.3355,6.7794 13.833,11.1814 14.4393,9.7823 0.6062,-1.3992 -2.0524,-5.097 -5.9084,-8.2175 z m 21.2501,-0.1944 c -0.88818,-2.2598 -2.11076,-4.1088 -2.71728,-4.1088 -0.60624,0 -1.10251,1.849 -1.10251,4.1088 0,2.2598 1.22286,4.1087 2.71728,4.1087 1.49442,0 1.99069,-1.8489 1.10251,-4.1087 z m 21.42854,0.1616 c 0,-0.6643 -1.26242,-1.9697 -2.80537,-2.9008 -1.54296,-0.931 -2.80537,-0.3876 -2.80537,1.208 0,1.5953 1.26241,2.9007 2.80537,2.9007 1.54295,0 2.80537,-0.5437 2.80537,-1.2079 z m -43.10054,-11.4918 c -4.1147,-4.0173 -8.3595,-6.4466 -9.4331,-5.3986 -1.0733,1.0483 1.7862,4.8223 6.3547,8.387 10.7418,8.3815 12.7381,6.4435 3.0784,-2.9884 z m -156.6452,-22.9091 -0.1374,-9.587 -2.0325,10.9565 c -1.118,6.0262 -2.8649,14.6545 -3.8824,19.174 -1.6776,7.4524 -1.4753,7.3248 2.1702,-1.3695 2.211,-5.2729 3.9581,-13.9012 3.8824,-19.174 z m 184.08195,20.9355 c -1.79571,-4.5694 -12.38995,-6.4337 -12.38995,-2.1801 0,2.2113 11.7854,8.6516 13.39147,7.3182 0.42221,-0.3506 -0.0281,-2.6624 -1.00152,-5.1381 z m 21.27453,-1.695 c 0,-2.7986 -1.57802,-5.71 -3.50672,-6.4698 -1.92869,-0.7599 -0.98188,-1.4978 2.10403,-1.64 4.66926,-0.2136 4.90463,-0.7036 1.40269,-2.9133 -5.52686,-3.4875 -12.02634,-3.4875 -9.8188,0 0.95355,1.5065 -0.47551,2.7391 -3.17596,2.7391 -4.43304,0 -4.38086,0.3906 0.53583,4.0216 2.99501,2.2119 4.34411,4.0608 2.9981,4.1088 -1.3463,0.049 -0.88762,1.9226 1.01919,4.1657 4.20413,4.9463 8.44164,2.9325 8.44164,-4.0121 z m -78.56078,-10.6418 c 0,-2.674 -2.2757,-0.8626 -5.6107,4.4785 -7.1234,11.4071 -7.0676,14.8831 0.1038,6.4781 3.0346,-3.5565 5.5125,-8.487 5.5069,-10.9566 z m 40.0983,10.5753 c -0.8068,-3.0131 -3.4091,-5.4783 -5.7827,-5.4783 -3.6299,0 -3.509,0.8705 0.7619,5.4783 2.7928,3.013 5.395,5.4783 5.783,5.4783 0.3877,0 0.045,-2.4653 -0.7622,-5.4783 z m 206.02499,3.8233 c -0.93223,-0.91 -3.35186,-1.0075 -5.37706,-0.2164 -2.23784,0.8746 -1.57325,1.5235 1.69501,1.655 2.95714,0.1177 4.61427,-0.5284 3.68205,-1.4386 z m -34.54729,-13.7552 c 3.98923,-6.9692 7.22915,-13.4404 7.19998,-14.3805 -0.0617,-1.9774 -16.77892,23.6024 -16.77892,25.674 0,3.7433 2.98772,0.2219 9.57894,-11.2935 z m 53.54189,1.5827 c 25.03091,-5.8571 52.36307,-9.9784 58.53545,-8.8264 5.27269,0.9839 8.43715,-1.3627 16.22121,-12.0293 9.12867,-12.5093 22.0286,-45.9382 22.0286,-57.0848 0,-2.8029 -4.10285,-14.9764 -9.11745,-27.0521 -14.12139,-34.0062 -41.03779,-56.3342 -68.03022,-56.4337 -29.15173,-0.1073 -47.35325,40.6979 -37.17621,83.3443 4.66618,19.5535 8.25901,21.2023 39.01765,17.9056 21.68187,-2.3239 28.31516,-0.6942 33.16144,8.1471 4.90603,8.9507 3.197,15.1821 -5.5465,20.2252 -9.22097,5.3184 -10.93701,3.5867 -3.93313,-3.9695 5.07772,-5.4785 3.12911,-10.7004 -3.94715,-10.578 -12.63875,0.2186 -52.93593,28.7539 -64.10018,45.3904 l -4.99216,7.439 8.32858,-1.9259 c 4.58061,-1.0595 13.37825,-3.1078 19.55007,-4.5519 z m -268.00209,-13.4026 c 0.062,-2.7825 -1.1263,-2.3784 -4.0296,1.3695 -2.2653,2.9243 -4.159,7.0933 -4.2081,9.2644 -0.062,2.7827 1.1264,2.3784 4.0297,-1.3696 2.2653,-2.9243 4.1589,-7.0933 4.208,-9.2643 z m -79.3501,4.8033 c -0.8955,-2.185 -1.5604,-1.5361 -1.695,1.655 -0.1207,2.8873 0.5414,4.5054 1.4736,3.5951 0.9322,-0.9102 1.0318,-3.2727 0.2216,-5.2501 z m 133.82144,-0.7595 c 10.80713,-16.1047 2.53971,-28.8575 -18.70844,-28.8575 -12.0687,0 -15.4565,-1.326 -25.0834,-9.8178 -9.0128,-7.9504 -12.5448,-9.4711 -18.569,-7.9948 -4.0916,1.0027 -7.9889,2.3597 -8.6607,3.0157 -2.3678,2.3118 4.6737,6.857 17.7939,11.4859 13.4957,4.7613 19.4869,11.5864 22.5015,25.6329 1.4179,6.6073 8.755,10.5155 24.4141,13.004 0.9796,0.1562 3.82003,-2.7553 6.31204,-6.4684 z m 337.07167,2.7298 c -4.57135,-1.9673 -10.25222,-2.8087 -12.62416,-1.8698 -2.81575,1.1143 -0.90474,2.308 5.5061,3.4385 14.89174,2.6266 16.19764,2.3387 7.11806,-1.5687 z m -306.25103,-3.387 c 1.08736,-1.0614 -2.17388,-4.2087 -7.24711,-6.9937 l -9.22406,-5.0636 9.73099,1.5669 c 11.34884,1.8273 8.59649,-2.5894 -3.41891,-5.4868 -6.78282,-1.6356 -7.71476,-1.0757 -7.71476,4.6349 0,4.0054 2.41963,7.6653 6.31208,9.5476 8.16559,3.9488 9.19264,4.1082 11.56177,1.7947 z m -94.37688,-5.4361 c 0.5474,-1.6033 -0.9518,-3.6447 -3.3314,-4.5363 -3.0323,-1.1361 -4.3267,0.06 -4.3267,3.9995 0,5.6355 5.7791,6.0406 7.6581,0.5368 z m -39.4062,-4.1037 c -0.8954,-2.1851 -1.5603,-1.5361 -1.695,1.6549 -0.1206,2.8874 0.5415,4.5054 1.4737,3.5952 0.9322,-0.9103 1.0318,-3.2728 0.2216,-5.2501 z m 435.7158,2.2255 c 0,-2.4404 10.89774,-1.0338 21.04589,2.7178 4.84487,1.7911 5.12036,1.4849 2.01846,-2.244 -4.5374,-5.4539 -17.75939,-8.0595 -22.29876,-4.3941 -2.33996,1.8894 -6.17181,1.8571 -11.92282,-0.1003 -6.55727,-2.2318 -8.47475,-2.0904 -8.47475,0.6252 0,1.9303 0.77906,4.2706 1.73148,5.2002 2.57729,2.5165 17.89405,0.9724 17.9005,-1.8047 z m 32.55127,-7.6389 c 2.41318,-3.8122 -11.16789,-15.9862 -17.83373,-15.9862 -3.39338,0 -3.78529,-0.8077 -1.48348,-3.0553 2.30208,-2.2477 5.37228,-1.9628 11.61423,1.0775 10.08334,4.9116 11.62714,3.8849 11.62714,-7.7334 0,-7.2071 -1.53286,-9.4181 -8.47643,-12.2263 -9.71359,-3.9286 -14.97058,-9.8731 -6.69053,-7.5658 2.94143,0.8197 7.55739,2.3784 10.25756,3.4637 4.19767,1.6873 4.9094,0.3738 4.9094,-9.0586 0,-10.0388 -0.76026,-11.195 -8.44445,-12.8429 -10.69239,-2.293 -26.04309,-9.6904 -24.08214,-11.605 0.81805,-0.7988 4.99973,-0.1542 9.29223,1.4327 12.75013,4.7134 23.23436,6.3499 23.23436,3.6268 0,-7.1108 -11.26665,-36.4667 -16.47875,-42.9364 -3.28032,-4.0718 -6.01219,-8.7778 -6.07082,-10.4578 -0.1038,-2.963 -11.14966,-11.63 -34.28891,-26.903 -6.17771,-4.0775 -17.98635,-8.7827 -26.24172,-10.4561 -8.25564,-1.6734 -15.73756,-4.1921 -16.62714,-5.5973 -3.25956,-5.1495 -7.12088,-2.6039 -4.18253,2.7572 3.50952,6.4028 -1.01919,10.4279 -6.62348,5.8867 -2.71896,-2.2034 -5.30439,-1.579 -10.02892,2.422 -3.50138,2.9648 -8.74069,6.1266 -11.64341,7.0261 -9.09024,2.817 -5.76419,6.7446 5.71146,6.7446 23.31206,0 48.58396,17.3828 57.74349,39.7176 2.47125,6.0261 7.74843,16.9635 11.72701,24.3054 6.29104,11.6091 6.98509,15.3576 5.32431,28.761 -3.80604,30.7209 -4.16261,29.1982 6.63751,28.3405 7.35708,-0.5843 11.23298,0.8862 16.24421,6.163 5.02049,5.2864 5.5566,6.9305 2.26029,6.9305 -2.37699,0 -4.32167,1.2327 -4.32167,2.7392 0,1.5065 2.84043,2.758 6.31208,2.7811 3.47164,0.022 8.20571,1.2368 10.52014,2.6972 5.53892,3.4949 7.66651,3.4005 10.10269,-0.4487 z m -38.85774,-30.3667 c -6.94694,-6.7829 -6.09046,-12.7081 2.28666,-15.8179 11.63752,-4.3201 15.28281,-3.1801 17.02495,5.3239 1.11401,5.439 3.78248,8.5209 8.34597,9.6392 11.44171,2.804 7.4031,5.6483 -8.01999,5.6483 -10.28645,0 -16.20886,-1.4457 -19.63759,-4.7935 z m 14.20022,-8.2489 c 0.64131,-3.2507 -0.85395,-4.762 -4.71161,-4.762 -6.43356,0 -9.99638,4.091 -7.28864,8.3691 2.73047,4.3135 10.92383,1.8508 12.00025,-3.6071 z m -14.87491,-19.4696 c -4.84347,-3.458 -4.44735,-3.8429 5.07463,-4.9282 10.62675,-1.2114 14.74812,3.6979 5.89072,7.0166 -5.65927,2.1204 -4.85609,2.2733 -10.96535,-2.0884 z m -4.23471,-10.991 c 0,-2.2598 1.26242,-4.8705 2.80537,-5.8016 1.54296,-0.9311 2.80537,0.1561 2.80537,2.4158 0,2.2598 -1.26241,4.8705 -2.80537,5.8016 -1.54295,0.9311 -2.80537,-0.1561 -2.80537,-2.4158 z m -5.04966,-13.1973 c -1.85155,-1.8078 -3.36645,-6.7148 -3.36645,-10.9044 0,-5.7622 1.64451,-8.0204 6.75225,-9.2721 9.48411,-2.3242 18.49609,3.1022 18.49609,11.1373 0,10.1336 -14.58877,16.1601 -21.88189,9.0392 z m 16.27115,-9.0392 c 0,-2.5565 -2.6494,-4.1087 -7.01343,-4.1087 -4.36403,0 -7.01343,1.5522 -7.01343,4.1087 0,2.5566 2.6494,4.1088 7.01343,4.1088 4.36403,0 7.01343,-1.5522 7.01343,-4.1088 z m -0.50637,81.4616 c 1.02452,-7.0107 -1.76795,-7.7515 -9.20498,-2.4419 -2.99838,2.1408 -4.29306,5.0829 -3.07974,6.9995 3.28621,5.1921 11.29442,2.2212 12.28472,-4.5576 z m -438.02035,-1.1704 c -0.8955,-2.1851 -1.5604,-1.5361 -1.695,1.6549 -0.1207,2.8875 0.5414,4.5053 1.4736,3.5951 0.9322,-0.9102 1.0318,-3.2727 0.2216,-5.25 z m 129.93601,2.0393 c -10.56278,-3.8036 -12.84467,-3.5668 -9.9341,1.0312 1.01695,1.6068 5.87753,2.8276 10.80096,2.713 l 8.95193,-0.2085 -9.81879,-3.5357 z m -19.63759,-8.5133 c 0,-2.7709 -19.35372,-9.4478 -27.26232,-9.4053 -6.07,0.033 -6.8695,0.6321 -3.5968,2.6972 2.3145,1.4604 8.2363,2.6741 13.16,2.6972 4.9235,0.022 9.73215,1.2745 10.68569,2.7811 1.82966,2.8905 7.01343,3.7995 7.01343,1.2298 z m 25.24833,-0.4466 c -2.31443,-0.8379 -6.73289,-2.7914 -9.8188,-4.341 -5.01572,-2.5186 -5.20228,-2.3341 -1.76065,1.7397 2.11778,2.5065 6.53623,4.4599 9.8188,4.3409 4.09864,-0.1484 4.65018,-0.6936 1.76065,-1.7396 z m -131.63305,-18.0996 c -2.1626,-2.1116 -3.0247,-0.5854 -3.0247,5.3554 0,10.813 3.9365,14.683 5.1288,5.0422 0.5063,-4.0944 -0.4405,-8.7733 -2.1041,-10.3976 z m 67.6706,14.0294 c -4.2987,-4.1973 -4.3921,-8.6118 -0.1262,-6.0385 2.0066,1.2109 2.4774,0.7514 1.2371,-1.2079 -1.1008,-1.7393 -3.8652,-3.1624 -6.1429,-3.1624 -3.3286,0 -3.5266,-1.121 -1.0099,-5.7129 1.7222,-3.142 2.2981,-6.5317 1.2798,-7.5326 -1.0186,-1.0009 -12.1669,-2.4361 -24.7742,-3.1893 l -22.9227,-1.3696 -6.4978,-13.2862 c -7.5072,-15.3505 -9.8659,-15.2956 -7.333,0.1706 2.471,15.087 13.2414,21.273 33.0944,19.0076 16.4302,-1.8749 12.7636,2.3267 -4.5183,5.1775 -8.0711,1.3314 -13.0234,0.3656 -20.6481,-4.0268 -5.5165,-3.1781 -9.5239,-4.2956 -8.9054,-2.4833 0.6189,1.8123 5.7853,5.6565 11.481,8.5425 10.1148,5.1252 10.6989,5.13 25.0764,0.2041 8.0963,-2.7739 15.615,-6.2758 16.7079,-7.7822 1.2804,-1.7649 3.2256,-1.5294 5.4705,0.6623 2.7739,2.7085 2.5122,3.4009 -1.286,3.4009 -2.623,0 -4.7691,1.4733 -4.7691,3.2741 0,3.205 13.6756,18.6391 16.5155,18.6391 0.7914,0 -0.076,-1.4792 -1.9276,-3.287 z m -42.6416,-2.1913 c 0,-1.5066 -1.3371,-2.7392 -2.9709,-2.7392 -1.6341,0 -2.1907,1.2326 -1.2372,2.7392 0.9536,1.5065 2.2906,2.7391 2.9709,2.7391 0.6806,0 1.2372,-1.2326 1.2372,-2.7391 z m 102.83251,-5.7974 c -5.93168,-3.0554 -11.4086,-4.9463 -12.17082,-4.202 -1.85828,1.8143 13.43492,9.783 18.74773,9.7687 2.31443,-0.01 -0.64524,-2.5113 -6.57691,-5.5667 z m -24.64041,-15.431 c -0.41407,-10.1691 0.25529,-25.0323 1.49105,-33.0293 2.28049,-14.7769 16.10143,-50.9323 28.88606,-75.5662 13.15578,-25.3487 16.75984,-45.4577 10.20846,-56.9602 -1.72671,-3.0317 -17.64578,6.9077 -19.35846,12.0868 -1.28682,3.8925 -2.48892,4.1499 -6.87848,1.4733 -6.46301,-3.941 -5.00029,-5.5917 -19.69174,22.2218 -13.39309,25.3559 -31.14999,42.0705 -65.57749,61.7293 l -18.1886,10.3859 5.4587,5.7207 c 3.002,3.1464 5.4584,6.7209 5.4584,7.9433 0,1.2225 3.675,2.2227 8.1667,2.2227 7.8407,0 14.7647,5.8462 24.7066,20.8614 3.3348,5.0366 3.4941,5.0376 6.6398,0.038 2.6056,-4.1412 3.6893,-4.4034 5.6576,-1.3695 4.9267,7.5935 2.6353,10.6004 -8.0776,10.6004 -7.2903,0 -12.1702,-1.793 -15.636,-5.7451 -3.4346,-3.9167 -6.9808,-5.2362 -11.1435,-4.1461 -3.358,0.8794 -8.946,1.6158 -12.4176,1.6364 -3.7693,0.022 -6.3121,1.7199 -6.3121,4.2139 0,5.5739 10.4517,9.1309 21.9217,7.4606 11.4484,-1.6672 29.7793,5.9096 33.3847,13.7989 2.1868,4.7853 15.2596,10.3013 29.75352,12.5542 1.26578,0.1967 1.96263,-7.9624 1.54828,-18.1314 z m -204.4338,4.2865 c -16.9006,-14.0973 -28.1645,-22.2112 -29.2956,-21.1033 -1.5968,1.5638 36.0563,32.0944 37.7117,30.5781 0.7715,-0.7066 -3.0157,-4.9703 -8.4161,-9.4748 z m 93.6798,7.1308 c 2.4701,-6.2846 2.2698,-6.6238 -3.9079,-6.6238 -5.4065,0 -7.6023,5.3599 -3.7404,9.1305 3.0719,2.9996 5.841,2.0921 7.6483,-2.5067 z m 133.86744,-15.4598 c -15.9143,-5.9685 -18.08846,-4.6034 -3.14622,1.9755 14.57811,6.4187 14.59943,10.5105 0.0281,5.4909 -14.81544,-5.1038 -14.37023,-2.4827 0.70134,4.1278 l 11.92282,5.2295 1.54913,-6.0482 c 1.3174,-5.1443 -0.33468,-6.7547 -11.05569,-10.7755 z m -229.42064,-4.4152 c -1.1491,-4.29 -0.028,-4.8426 7.6747,-3.7407 6.2688,0.8984 8.4222,0.3447 7.0557,-1.8141 -1.0817,-1.7089 -8.1958,-3.1071 -15.8093,-3.1071 l -13.8429,0 6.0981,6.8478 c 7.2095,8.0957 10.6983,8.813 8.8237,1.8141 z m 243.13526,0.9712 c 0,-0.7279 -6.31209,-4.4465 -14.02685,-8.2636 -7.71477,-3.8171 -14.02685,-5.7162 -14.02685,-4.2203 0,1.4959 4.73406,5.1601 10.52013,8.1425 10.18069,5.2478 17.53357,7.0684 17.53357,4.3414 z m -158.36846,-17.596 c -6.1626,-11.6356 -8.1617,-10.7325 -2.3922,1.0806 2.5661,5.2539 5.1636,9.0663 5.7724,8.472 0.6085,-0.5944 -0.9126,-4.893 -3.3802,-9.5526 z m 160.51653,-9.681 c -0.40987,-0.2101 -5.39529,-3.722 -11.07841,-7.804 -10.8997,-7.8289 -13.51262,-8.832 -13.51262,-5.1871 0,1.2291 5.1327,5.0513 11.40579,8.4939 6.27337,3.4425 10.73222,6.9169 9.90885,7.7209 -2.09702,2.0476 -18.50927,-4.8912 -18.50927,-7.8253 0,-1.3238 -1.26242,-2.4068 -2.80537,-2.4068 -1.54296,0 -2.75965,3.3896 -2.70382,7.5326 0.0814,6.1187 2.3206,8.561 11.92282,13.0109 l 11.82127,5.4783 2.14807,-9.3156 c 1.18163,-5.1236 1.81283,-9.4876 1.40269,-9.6978 z m -105.94673,3.9481 c -2.3145,-1.4604 -6.3315,-2.6741 -8.9264,-2.6972 -2.5953,-0.022 -7.3153,-3.6027 -10.489,-7.9548 -6.3144,-8.6581 -17.5569,-12.7918 -24.4887,-9.004 -3.4935,1.9088 -2.6247,2.7634 4.1548,4.0873 4.9607,0.9687 11.224,5.1771 14.869,9.9908 5.2306,6.9076 8.229,8.31 17.6932,8.2751 8.3906,-0.031 10.2856,-0.742 7.1871,-2.6972 z m -159.2048,-15.6685 c -4.9442,-1.7241 -4.3775,-8.9838 0.7014,-8.9838 2.3144,0 4.208,-1.4682 4.208,-3.2626 0,-1.7945 1.7907,-0.8715 3.9794,2.051 3.8237,5.106 4.0563,5.0143 5.9477,-2.3432 1.0826,-4.2113 1.5009,-8.0064 0.93,-8.4337 -0.5712,-0.4272 -6.9736,0.9176 -14.228,2.9885 -10.4528,2.984 -12.8382,4.7346 -11.4964,8.437 2.4331,6.7128 9.8676,14.6008 11.8109,12.531 0.9095,-0.9688 0.076,-2.3117 -1.853,-2.9842 z m 268.6142,1.9728 c 0,-1.5065 -1.79684,-2.7391 -3.99289,-2.7391 -2.19604,0 -7.87691,-3.1911 -12.62416,-7.0914 -11.48631,-9.4369 -11.09608,-5.9774 0.48617,4.3105 9.21143,8.1821 16.13088,10.5499 16.13088,5.52 z m -230.0403,-2.7391 c 0,-1.5066 -0.5566,-2.7392 -1.2372,-2.7392 -0.6803,0 -2.0174,1.2326 -2.9709,2.7392 -0.9535,1.5065 -0.397,2.7391 1.2372,2.7391 1.6338,0 2.9709,-1.2326 2.9709,-2.7391 z m 240.50545,-21.2977 c 6.23101,-12.6646 8.52215,-20.5595 7.33324,-25.2678 -1.42233,-5.6311 -1.06352,-6.2395 2.01874,-3.4239 5.02161,4.5874 8.23657,4.3201 8.23657,-0.6848 0,-2.2598 -1.26242,-4.1087 -2.80537,-4.1087 -1.54296,0 -2.80537,-5.6195 -2.80537,-12.4878 0,-7.6277 -1.09185,-11.829 -2.80537,-10.7949 -1.54296,0.9311 -2.80537,5.3907 -2.80537,9.9103 0,4.9123 -1.1561,7.5198 -2.87438,6.4829 -1.7514,-1.057 -2.15818,-7.0053 -1.04136,-15.227 2.10431,-15.4874 -2.18061,-18.4528 -7.03138,-4.8662 -3.84392,10.7662 -3.94519,24.4033 -0.25248,33.8877 2.16322,5.5553 1.99855,6.9958 -0.70134,6.1302 -1.94076,-0.6223 -3.92836,-4.4262 -4.4165,-8.453 -0.48813,-4.0267 -2.06615,-7.3214 -3.50671,-7.3214 -3.99653,0 -3.0904,11.3793 1.60636,20.1719 4.96999,9.3049 5.05696,9.9587 1.32525,9.9587 -1.57606,0 -4.30372,-3.0815 -6.06128,-6.8478 -1.75757,-3.7664 -4.2709,-6.8479 -5.58577,-6.8479 -1.3146,0 0.87275,5.0469 4.86086,11.2154 3.98812,6.1684 6.52894,11.9206 5.64609,12.7827 -0.88285,0.862 -2.00163,1.0537 -2.48584,0.426 -10.99873,-14.2535 -13.14624,-16.3683 -13.14624,-12.9448 0,2.2003 3.15099,6.891 7.00248,10.4237 9.41763,8.6387 6.7284,10.2401 -4.73687,2.8208 -8.15409,-5.2764 -7.91843,-4.8193 1.94244,3.7692 6.17182,5.3754 11.85269,9.7607 12.62417,9.745 0.77147,-0.016 5.48085,-8.3176 10.46515,-18.4485 z m -254.72955,2.6468 c 0.1094,-1.9721 -1.0652,-2.8238 -2.6082,-1.8927 -1.5429,0.9311 -2.7167,5.0098 -2.6081,9.0639 0.1767,6.5816 0.4553,6.7843 2.6081,1.8927 1.3261,-3.0131 2.4999,-7.0918 2.6082,-9.0639 z m 104.0251,1.5185 c 24.9972,-9.9454 63.2779,-36.0874 74.0323,-50.5567 12.8315,-17.2641 17.25974,-30.7035 13.4683,-40.8751 -2.7995,-7.5104 -2.9353,-7.3106 -3.1474,4.6252 -0.1543,8.7582 -2.6151,16.1603 -8.2564,24.8457 -7.6475,11.7741 -20.9761,24.3104 -25.847,24.3104 -1.2465,0 -2.2185,-6.025 -2.1602,-13.3889 0.1094,-13.6466 -3.9895,-24.9591 -9.0411,-24.9591 -1.7337,0 -1.5649,2.2633 0.4427,5.9256 6.1541,11.2277 -1.2681,32.3052 -16.4631,46.7513 -11.6709,11.0955 -31.3685,20.4693 -35.1844,16.7436 -1.3101,-1.2792 9.3848,-31.8523 14.3624,-41.0574 4.5972,-8.5017 9.515,-36.2784 7.0757,-39.9651 -1.3867,-2.0955 -2.9594,3.3424 -3.9825,13.7691 -1.4181,14.4556 -3.7376,20.1935 -14.3941,35.6088 -6.9867,10.1071 -14.3065,21.4581 -16.2658,25.2244 -1.9592,3.7663 -4.9512,7.7534 -6.649,8.8603 -4.5638,2.9754 -10.7008,2.5218 -8.6975,-0.6429 2.7336,-4.3185 -3.1367,-3.1914 -6.9901,1.3422 -2.8691,3.3754 -2.322,4.5298 3.1633,6.6742 11.3104,4.4219 28.4097,3.1796 44.5339,-3.2356 z m 279.96608,-11.7011 c -0.86377,-0.8434 -2.43253,0.6768 -3.48595,3.3782 -1.52247,3.9039 -1.20014,4.2185 1.57045,1.5334 1.91719,-1.8581 2.77928,-4.0683 1.9155,-4.9116 z m -296.37108,-29.8595 c 10.1585,-10.8542 16.6777,-32.6906 13.9615,-46.7641 l -2.1147,-10.9566 -7.2926,13.6958 c -4.0108,7.5326 -16.1701,22.2554 -27.0204,32.7172 -10.8504,10.4619 -19.0653,20.0686 -18.2551,21.3484 0.8099,1.2797 -0.053,4.1217 -1.9178,6.3155 -1.8644,2.1938 -2.1705,3.9888 -0.6797,3.9888 1.9937,0 33.8316,-35.1006 42.0297,-46.3372 0.4579,-0.6277 1.6976,-0.297 2.7544,0.735 1.057,1.032 -2.9639,6.7616 -8.9352,12.7324 -5.9712,5.9708 -10.1947,11.5025 -9.3856,12.2927 0.8094,0.7901 3.7634,-1.0362 6.5648,-4.0585 2.8012,-3.0222 6.38,-5.495 7.9527,-5.495 1.5727,0 -0.1403,3.1178 -3.8069,6.9285 -3.6666,3.8108 -8.305,6.3147 -10.3077,5.5643 -2.0028,-0.7504 -3.6414,0.3564 -3.6414,2.4596 0,2.1032 -3.3263,6.3787 -7.3919,9.5011 -6.9904,5.3689 -7.0664,5.6771 -1.4027,5.6771 3.2941,0 5.9892,1.3271 5.9892,2.9492 0,1.6222 3.4638,-1.1512 7.6974,-6.163 4.2336,-5.0118 11.0745,-12.7209 15.202,-17.1312 z m -22.8994,17.9291 c 0,-1.5065 1.2624,-3.5009 2.8054,-4.432 1.5429,-0.9311 2.8054,-0.4603 2.8054,1.0463 0,1.5065 -1.2625,3.5009 -2.8054,4.432 -1.543,0.9311 -2.8054,0.4602 -2.8054,-1.0463 z m 54.7014,-0.6878 c 12.1826,-10.444 10.8088,-14.1946 -1.4961,-4.085 -4.8124,3.9537 -9.9153,7.1887 -11.3399,7.1887 -1.4246,0 -2.5902,1.2326 -2.5902,2.7391 0,4.8897 5.2079,2.9172 15.4262,-5.8428 z m -78.547,-2.3746 c 2.7927,-3.0131 3.8153,-5.4783 2.2723,-5.4783 -1.5429,0 -5.0903,2.4652 -7.8831,5.4783 -2.7927,3.013 -3.8153,5.4783 -2.2723,5.4783 1.5429,0 5.0903,-2.4653 7.8831,-5.4783 z m -2.9777,-8.0931 c 16.8227,-12.1344 35.2394,-32.6615 35.2394,-39.2776 0,-2.3924 1.1356,-5.035 2.5235,-5.8725 1.3881,-0.8376 4.0268,-7.6417 5.8643,-15.1203 3.7056,-15.08133 0.6573,-29.5679 -7.6152,-36.18969 -4.0512,-3.24307 -4.2947,-2.8912 -2.2162,3.20482 7.2002,21.11724 -2.4999,52.65127 -21.7425,70.68327 l -9.6603,9.0525 -1.7578,-14.492 c -1.7231,-14.2045 -8.4717,-26.7631 -15.6343,-29.0943 -2.9058,-0.9458 -2.935,0.054 -0.1487,5.1359 3.5339,6.4473 2.3843,47.989 -1.6055,58.0086 -2.8006,7.0332 0.062,6.0015 16.7542,-6.0387 z m 85.7361,-4.5745 c 0,-0.7358 -3.7873,0.8465 -8.4161,3.5163 -4.6289,2.6698 -8.4161,5.9049 -8.4161,7.1892 0,1.2843 3.7872,-0.298 8.4161,-3.5162 4.6288,-3.2182 8.4161,-6.4534 8.4161,-7.1893 z m 297.36921,-2.5905 c 0,-0.7532 -2.52483,-0.05 -5.61074,1.5623 -3.08591,1.6126 -5.61074,3.5482 -5.61074,4.3015 0,0.7533 2.52483,0.05 5.61074,-1.5623 3.08591,-1.6125 5.61074,-3.5482 5.61074,-4.3015 z m -299.81661,-3.2312 c 3.4893,-4.3444 3.3903,-4.4413 -1.0593,-1.0342 -2.7002,2.0677 -4.9094,4.2248 -4.9094,4.7936 0,2.2544 2.3037,0.8034 5.9687,-3.7594 z m 12.2662,-0.6847 c 2.7927,-3.0131 4.4465,-5.4783 3.675,-5.4783 -0.7715,0 -3.6876,2.4652 -6.4804,5.4783 -2.7927,3.013 -4.4465,5.4782 -3.675,5.4782 0.7715,0 3.6876,-2.4652 6.4804,-5.4782 z m 303.68129,-10.0454 c 6.55755,-2.2909 11.92282,-4.6492 11.92282,-5.2407 0,-0.5914 -20.82763,-0.7837 -46.28355,-0.4273 -25.45593,0.3564 -46.2858,1.5475 -46.28861,2.6468 0,2.7601 22.00308,13.559 32.25671,15.8261 5.55519,1.2282 13.18439,0.076 22.44296,-3.3894 7.71476,-2.8875 19.39212,-7.1245 25.94967,-9.4155 z m -156.39938,1.7708 c -6.24784,-3.8575 -8.41611,-3.2546 -8.41611,2.3397 0,7.5036 3.33194,9.3339 8.24919,4.5315 3.87225,-3.782 3.89133,-4.5716 0.16832,-6.8712 z m -106.60411,-7.1802 c 0,-0.8614 -2.1794,-0.7496 -4.8434,0.2485 -3.5654,1.3359 -3.0214,-0.2129 2.0619,-5.87 3.7982,-4.2266 5.094,-6.144 2.8797,-4.2608 -2.214,1.8831 -5.1102,3.4239 -6.4355,3.4239 -1.3255,0 -1.5017,-1.5408 -0.3919,-3.4239 1.1561,-1.9615 0.9404,-2.4617 -0.5052,-1.1711 -1.3879,1.2391 -2.6705,5.8095 -2.8497,10.1564 -0.2845,6.8851 0.3442,7.5529 4.8788,5.1833 2.8629,-1.496 5.2053,-3.4248 5.2053,-4.2863 z m -44.8859,-9.6293 c 0,-4.8118 -0.6772,-5.1685 -4.2759,-2.2524 -2.3518,1.9056 -3.6251,4.1002 -2.8295,4.8768 0.7953,0.7766 -0.1206,3.268 -2.0364,5.5364 -3.0354,3.5952 -2.6724,3.703 2.8297,0.8405 3.4717,-1.8062 6.3121,-5.8568 6.3121,-9.0013 z m 165.51686,-1.2379 c 0,-1.849 -4.10286,-5.8412 -9.11745,-8.8716 -23.20462,-14.023 -29.96556,-28.4446 -30.37094,-64.7852 l -0.24407,-21.91316 -4.22965,9.48251 c -3.04187,6.81932 -3.96259,16.49849 -3.27808,34.46372 0.84498,22.17003 1.91018,26.49343 9.46728,38.41973 5.0031,7.8957 13.10305,15.9711 19.63759,19.5786 10.2786,5.6744 11.3884,5.793 14.62889,1.5636 1.92869,-2.517 3.50671,-6.0893 3.50671,-7.9382 z m -112.47906,-25.3799 c 0.1459,-2.0718 -5.4166,2.0222 -12.3599,9.0978 -6.9433,7.0756 -12.6242,13.5532 -12.6242,14.3946 0,3.3014 24.7361,-19.9579 24.9841,-23.4924 z m -55.4852,16.7778 c 3.4893,-4.3445 3.3903,-4.4414 -1.0593,-1.0342 -2.7002,2.0676 -4.9094,4.2247 -4.9094,4.7935 0,2.2544 2.3038,0.8034 5.9687,-3.7593 z m 26.2931,-3.424 c 0.9535,-1.5065 0.3969,-2.7391 -1.2372,-2.7391 -1.6338,0 -2.9709,1.2326 -2.9709,2.7391 0,1.5066 0.5566,2.7392 1.2372,2.7392 0.6803,0 2.0173,-1.2326 2.9709,-2.7392 z m 149.87378,-21.56374 c 0.18235,-5.59445 -0.39752,-6.00324 -4.17944,-2.93863 -2.41627,1.95791 -6.13282,6.84437 -8.25873,10.85867 -3.39141,6.4033 -3.28705,7.864 0.85031,11.9038 4.41818,4.3136 4.92679,4.0379 8.04524,-4.3603 1.83106,-4.9308 3.42536,-11.8894 3.54262,-15.46354 z m -174.86768,14.05134 c -1.9455,-1.8996 -7.2679,1.9599 -7.2679,5.2703 0,1.8163 1.6097,1.6085 4.276,-0.552 2.3517,-1.9056 3.698,-4.0289 2.9919,-4.7183 z m 20.6671,-2.4081 c 9.7989,-14.04643 29.7625,-34.17938 31.8604,-32.13097 0.9737,0.95073 -4.6441,8.58128 -12.4837,16.95676 -12.556,13.41391 -13.6332,15.46421 -9.0414,17.20921 3.8958,1.4805 7.9642,-0.804 16.1012,-9.0415 l 10.8882,-11.02267 6.5443,7.81177 c 3.59959,4.2965 6.63023,9.6607 6.73459,11.9205 0.15149,3.2502 1.00769,3.0553 4.10314,-0.9332 2.54643,-3.2815 5.82759,-4.4485 9.39715,-3.3423 3.55159,1.1005 6.06521,0.2227 7.13153,-2.4907 0.90585,-2.3047 4.1368,-4.1904 7.18006,-4.1904 6.91496,0 10.32096,-4.9616 6.18107,-9.00389 -1.71716,-1.67658 -3.12209,-5.88333 -3.12209,-9.34835 0,-7.43576 -1.59934,-7.657 -15.21044,-2.10418 -11.93292,4.86823 -15.64863,3.53448 -15.64863,-5.61714 0,-5.42386 2.08916,-7.12007 11.92282,-9.67964 16.43442,-4.27769 20.18211,-6.46964 21.32979,-12.47537 0.54508,-2.85159 2.92852,-7.31867 5.29654,-9.92683 6.34995,-6.9935 0,-13.06232 -13.6442,-13.06232 -5.98301,0 -10.8781,-1.23261 -10.8781,-2.73914 0,-5.56137 -5.59503,-2.49698 -9.7439,5.33681 -4.288,8.09633 -20.76923,24.75732 -24.51393,24.78109 -1.0977,0.008 -3.3555,-4.91778 -5.0174,-10.94389 -3.0457,-11.04368 -9.2355,-14.48246 -12.2521,-6.80675 -0.8969,2.28239 -4.8194,5.33342 -8.7163,6.78007 -7.3565,2.73092 -9.1203,6.69277 -4.2799,9.61368 5.7527,3.47148 2.4704,12.65307 -8.2733,23.14322 -6.0933,5.9494 -10.3925,8.72278 -9.554,6.16308 1.2563,-3.83557 1.017,-3.95445 -1.3606,-0.67608 -1.5867,2.18786 -2.2047,5.05252 -1.3732,6.36585 0.8312,1.31337 -1.4613,5.57698 -5.0946,9.47468 -3.6335,3.8977 -5.028,6.199 -3.0993,5.1139 2.0271,-1.1406 3.5067,-0.5015 3.5067,1.5148 0,2.3895 1.4765,2.0462 4.6883,-1.09 4.2757,-4.1747 4.9765,-4.1934 7.9575,-0.2128 2.8107,3.7531 5.0939,2.0488 16.2913,-12.15936 7.1624,-9.08834 18.6748,-21.382 25.5827,-27.31921 14.0061,-12.03744 44.9025,-29.09036 49.81134,-27.49273 1.74774,0.56884 -3.65344,4.32456 -12.00278,8.34603 -27.33806,13.16745 -62.01016,44.47886 -75.74696,68.40497 -5.0859,8.8585 1.5811,4.8597 8.5482,-5.127 z m -16.3623,-16.93061 c 3.6644,-4.06349 10.7651,-11.25224 15.7797,-15.97501 6.036,-5.6848 9.1463,-11.23923 9.2027,-16.43487 0.076,-7.08121 0.3897,-7.33633 3.199,-2.61122 2.4348,4.09523 1.959,7.37919 -2.1826,15.06529 -6.1039,11.32754 -10.7869,16.67637 -14.6008,16.67637 -1.4734,0 -3.2649,2.1888 -3.9814,4.86398 -0.7165,2.67516 -4.1772,5.07539 -7.6907,5.33377 l -6.3878,0.4698 6.6619,-7.38811 z m 141.10144,-17.65994 c -0.94989,-15.44193 -2.23588,-28.58982 -2.85811,-29.21755 -0.62223,-0.6277 -1.32525,9.23322 -1.56231,21.91315 l -0.4309,23.05447 -1.93178,-30.47749 c -1.56988,-24.77008 -3.12518,-32.36305 -8.3053,-40.54643 -7.78322,-12.29615 -10.84472,-11.08 -4.04282,1.60599 3.32212,6.19649 5.43877,18.45487 6.5469,37.91778 1.2251,21.51647 2.94844,30.65839 6.84145,36.29366 2.86232,4.14297 5.7137,7.53267 6.33677,7.53267 0.62279,0 0.35572,-12.63433 -0.5939,-28.07625 z m -158.12664,19.174 c 5.9566,-6.97172 7.4196,-27.93549 2.1705,-31.10306 -2.2277,-1.34423 -2.6878,-0.46845 -1.4324,2.72586 1.0747,2.73523 -1.0226,10.24073 -5.0082,17.92017 -5.9496,11.46367 -6.6265,16.62008 -2.1823,16.62008 0.6526,0 3.5564,-2.77335 6.4524,-6.16305 z m 164.41123,-13.69572 c -0.7782,-1.88316 -1.41502,-0.34239 -1.41502,3.42393 0,3.76633 0.63682,5.3071 1.41502,3.42393 0.77821,-1.88316 0.77821,-4.96469 0,-6.84786 z m 21.85131,-1.12959 c 1.24503,-4.84327 -0.76614,-15.34636 -5.9053,-30.84126 -4.28633,-12.92325 -8.16503,-24.02314 -8.6195,-24.66643 -0.45447,-0.64329 -2.59693,1.19446 -4.76071,4.08387 -3.2374,4.32289 -3.31062,6.71348 -0.41352,13.49577 1.93655,4.53325 5.09259,15.02165 7.01371,23.30757 5.29458,22.8372 6.02565,24.84436 8.50476,23.34838 1.26101,-0.76091 3.1423,-4.68846 4.18056,-8.7279 z m -58.88612,-30.37056 c 3.027,-7.75649 -1.60888,-2.67993 -6.18023,6.76771 -4.15279,8.58218 -6.81452,10.55417 -16.85438,12.48735 -6.55755,1.26263 -11.92282,3.59953 -11.92282,5.19311 0,1.76412 2.469,2.12454 6.31208,0.92142 13.8546,-4.3371 20.27834,-3.12084 21.52869,4.07621 0.76699,4.41388 2.00556,1.0063 3.48511,-9.58701 1.26242,-9.03917 2.89655,-17.97563 3.63155,-19.85879 z m 294.79671,3.03738 c 8.4854,-3.78657 18.15383,-16.26657 18.06546,-23.3188 -0.0281,-2.02735 -2.89879,1.24437 -6.38531,7.27048 -8.53421,14.74994 -23.60354,20.2755 -41.75905,15.3122 -9.85611,-2.69433 -18.45373,-9.08796 -40.37741,-30.02595 -26.2016,-25.0237 -37.84837,-32.21967 -55.9085,-34.54304 -1.54296,-0.19859 -4.699,-1.1348 -7.01343,-2.08066 -16.69251,-6.82203 -52.92751,-7.69839 -81.35573,-1.96766 -20.06653,4.04514 -23.65011,6.0062 -24.79386,13.56802 -0.77961,5.15455 -0.0309,5.89839 4.20805,4.18451 57.00232,-23.04275 109.3926,-15.3425 151.03552,22.19901 25.96706,23.40971 34.39131,29.08752 48.59041,32.74951 13.90005,3.58477 21.82466,2.84153 35.69385,-3.34762 z m -251.70706,-48.63759 -0.89941,-6.80597 -9.65804,7.73161 -9.65777,7.73165 5.06369,7.54598 5.06398,7.54602 5.49347,-8.47165 c 3.02138,-4.6594 5.08894,-11.53432 4.59408,-15.27764 z"
       id="path17910"
       inkscape:connector-curvature="0" />
  </g>
</svg>
